<?xml version="1.0" encoding="utf-8"?>
<!-- Generator: Adobe Illustrator 24.0.1, SVG Export Plug-In . SVG Version: 6.00 Build 0)  -->
<svg version="1.1" id="Layer_1" xmlns="http://www.w3.org/2000/svg" xmlns:xlink="http://www.w3.org/1999/xlink" x="0px" y="0px"
	 viewBox="0 0 75.62 75.62" style="enable-background:new 0 0 75.62 75.62;" xml:space="preserve">
<style type="text/css">
	.st0{fill:#006837;}
	.st1{opacity:0.4;fill:#009245;enable-background:new    ;}
	.st2{opacity:0.3;fill:#39B54A;enable-background:new    ;}
</style>
<path class="st0" d="M73.17,36.93c0.09-0.21-0.06-0.55-0.34-0.44c-0.38,0.14-0.8,0.26-1.22,0.25c-1.05-0.03-0.18-0.8,0.13-1.08
	c0.56-0.48,1.12-0.99,1.27-1.74c0.04-0.23-0.13-0.42-0.36-0.38c-0.28,0.05-0.53,0-0.8,0.04c-0.12-0.31-0.12-0.62,0.02-0.94
	c0.08-0.27-0.21-0.44-0.43-0.34c-0.17,0.08-0.35,0.17-0.51,0.25c0.06-1.01,0.59-1.93,1.14-2.77c0.15-0.22-0.08-0.49-0.33-0.44
	c-0.57,0.15-1.07,0.44-1.62,0.62c-0.16-0.88,0.55-1.55,0.97-2.3c0.38-0.69,0.55-1.33,0.31-2.1c-0.06-0.19-0.26-0.27-0.43-0.18
	c-1.19,0.6-2.85,0.16-3.08-1.22c0.55-0.11,1.1-0.13,1.67-0.13c0.19,0,0.34-0.18,0.28-0.36c-0.2-0.75-0.86-1.29-1.31-1.84
	c0.73-0.38,1.35-1.08,0.88-1.96c-0.43-0.8-0.76-1.4-1.72-1.45c-0.73-0.04-1.3-2-2.22-1.36c-0.27,0.18-0.26,0.53-0.42-0.04
	c-0.07-0.26-0.14-0.52-0.23-0.78c-0.15-0.4-0.47-0.64-0.82-0.84c-0.12-0.07-0.3-0.04-0.36,0.09c-0.23,0.49-0.14,1.28-0.44,1.75
	c0.1-0.77-0.01-1.72-0.83-1.87c-0.36-0.07-0.71-0.07-1.04,0.12c-0.59,0.36-0.91,0.38-1.44,0c0.85-0.8,0.39-1.93-0.31-2.81
	c-0.1-0.13-0.35-0.09-0.42,0.05c-0.14,0.27-0.38,0.98-0.86,0.82c-0.51-0.09-0.74-0.4-0.69-0.91c0.14-0.4,0.34-0.57,0.69-0.74
	c0.4-0.2,0.75-0.4,0.85-0.85c0.21-1-1.08-1.04-1.81-1.12c0.14-0.48,0.16-0.91,0.02-1.43c-0.04-0.14-0.21-0.22-0.34-0.14
	c-0.14,0.1-0.34,0.19-0.52,0.3c-0.28-0.53-0.84-1.51-1.46-1.09c-0.29,0.19-0.36,0.56-0.6,0.82c-0.11,0.11-0.1,0.27-0.16,0.41
	c-0.13,0.31-0.49,0.3-0.83,0.21c1.18-0.72-0.71-2.81-2.23-2.61c-0.1,0.02-0.18,0.14-0.18,0.23c0,0.6,0.04,1.22-0.01,1.82
	C51,8.77,51,9.45,50.71,9.68c-0.66,0.53-0.49-1.14-0.48-1.31c0.03-0.55,0-1.32-0.73-1.33C48.96,7.04,48.69,7.53,48.57,8
	c-0.4-0.37-0.8-0.91-1.3-0.62c-0.34,0.19-0.56,0.56-0.62,0.93c-0.15,0.8-0.55,0.84-1.12,0.8c0.19-1.01,0.87-2.52-0.68-2.81
	c-0.82-0.16-1.26,0.34-1.28,1.02c-0.22-0.05-0.45-0.01-0.74,0.09c-0.49,0.17-0.91,0.09-1.02-0.51c-0.02-0.12-0.04-0.31-0.14-0.39
	c-0.72-0.64-1.37,0.35-1.73,1c-0.45-0.56-1.28-1.21-1.98-0.99c-0.23,0.07-0.29,0.38-0.23,0.59C38,7.95,37.53,8.52,36.9,9.09
	c-0.15-0.81-0.03-1.63-0.45-2.38c-0.06-0.11-0.2-0.11-0.28-0.04c-0.43,0.34-0.69,0.85-1.26,0.95c-0.09,0.01-0.4-0.45-0.56-0.6
	c-0.74-0.69-1.25-1.27-2.28-1.49c-0.13-0.04-0.32,0.09-0.25,0.25c0.11,0.29,0.25,0.56,0.39,0.83c0.37,0.73,0.48,1.2-0.22,1.6
	c-0.34,0.2-0.68,0.39-0.99,0.64c-0.11-0.93-0.31-1.85-0.89-2.61c-0.08-0.1-0.25-0.17-0.35-0.05c-0.44,0.52-0.65,1.14-0.92,1.75
	c-0.37-0.74-0.95-1.97-1.77-1.5c-0.46,0.27-0.35,1.11-0.18,1.8c-0.01-0.01-0.03-0.03-0.04-0.05C26.77,8.05,26.59,8,26.48,8.12
	c-0.37,0.42-0.64,0.91-0.95,1.37c-0.26-1.3-0.82-1.95-2.4-1.58c-0.14,0.04-0.2,0.17-0.18,0.31c0.12,0.61,0.39,1.13,0.73,1.61
	c-0.61,0.11-1.06,0.76-1.6,1.15c-0.15-0.72-0.42-1.37-0.77-2.03c-0.08-0.15-0.36-0.18-0.44,0c-0.46,1.02-0.8,2.09-2.01,2.07
	c0.09-0.84-0.41-1.47-1.2-1.88c-0.21-0.11-0.42,0.06-0.38,0.29c0.15,0.8,0.03,1.64-0.3,2.37c-0.7-0.52-1.49-1.7-2.33-1.06
	c-0.63,0.48-0.51,1.35-0.26,2.2c-0.27,0.36-0.47,0.76-0.76,1.1c-0.12-0.48-0.13-0.97-0.25-1.44c-0.06-0.25-0.4-0.28-0.52-0.08
	c-0.23,0.38-0.46,1.01-0.98,0.85c-0.14-0.04-0.27-0.02-0.41,0c-0.18,0.03-0.3,0.24-0.33,0.4c-0.04,0.3,0.08,0.59,0.17,0.87
	c0.09,0.26,0.17,0.45,0.07,0.74c-0.23,0.65-0.87,0.75-1.06,0.02c-0.08-0.26-0.39-0.27-0.54-0.07c-0.39,0.54-0.94,0.88-1.48,1.24
	c-0.14,0.1-0.19,0.25-0.11,0.4c0.4,0.75,1.02,1.15,1.79,1.41c-0.08,0.23-0.17,0.43-0.33,0.62c-0.8-0.68-1.42-1.2-2.37-0.28
	c-0.1,0.09-0.11,0.23-0.05,0.34c0.27,0.48,0.71,0.74,1.09,1.07c-0.29,0.04-0.53,0.2-0.7,0.46c-0.15-0.22-0.3-0.44-0.43-0.67
	c-0.1-0.17-0.3-0.17-0.44-0.06C6,20.45,5.5,21.25,4.86,21.94c-0.11,0.12-0.11,0.27-0.01,0.39c0.44,0.53,1,0.81,1.61,0.9
	c-0.19,0.05-0.38,0.06-0.59,0.01c-0.22-0.03-0.31,0.23-0.23,0.4c0.2,0.41,0.3,0.83,0.21,1.26c-0.21-0.21-0.42-0.43-0.58-0.7
	c-0.08-0.13-0.24-0.18-0.37-0.1c-2.17,1.25,0.25,2.48,0.67,3.93c-0.77-0.21-1.82-1.09-2.33-0.31c-0.42,0.64-0.01,1.33,0.28,1.98
	c-0.14-0.04-0.29-0.07-0.45-0.09c-0.27-0.04-0.37,0.29-0.28,0.48c0.41,0.98,0.82,1.39,1.66,1.52c-0.66,0.72-1.46,1.1-2.4,1.49
	c-0.16,0.07-0.29,0.21-0.23,0.39c0.19,0.58,0.52,1.52,1.11,1.81c0.63,0.3,1.1,0.17,1.68,0.14c-0.29,0.46-0.68,0.65-1.24,0.86
	c-0.19,0.07-0.41,0.14-0.53,0.31c-0.24,0.34-0.44,0.74-0.2,1.12c0.3,0.48,1.02,0.42,1.66,0.34c-0.1,0.13-0.19,0.26-0.29,0.39
	c-0.43,0.6-0.59,0.33-0.97-0.01c-0.36-0.34-0.81,0.16-0.92,0.5c-0.19,0.54-0.36,1.47-0.05,2c0.24,0.42,0.87,0.26,1.39,0.12
	c-0.05,0.57-1.27,1.54-1.46,2.04c-0.06,0.15,0.06,0.29,0.19,0.34c0.64,0.27,1.05,0.67,1.46,1.21c0.08,0.09,0.25,0.11,0.35,0.05
	c0.07-0.05,0.12-0.09,0.18-0.14c-0.48,1.02-1.38,1.89-1.38,3.07c0,1.05,1.01,0.52,1.58,0.18c0.3,0.6,0.77,0.89,1.4,1.08
	c-0.59,0.52-1.43,0.67-1.89,1.42c-0.09,0.13-0.04,0.34,0.11,0.42c0.52,0.29,1.1,0.43,1.68,0.5c-0.45,0.54-0.61,1.13-0.31,1.91
	c0.07,0.2,0.26,0.28,0.45,0.2c0.64-0.3,1.23,0.47,1.85,0.11c0.29-0.17,0.3-0.46,0.37-0.7c0.2,0.62,0.22,1.29,0.32,1.94
	c-0.42,0.11-0.84,0.17-1.26,0.31c-0.2,0.06-0.32,0.29-0.2,0.48c0.51,0.8,1.31,1.42,2.3,1.38c0.32-0.02,1.02-0.77,1.46-1.02
	c0.34,1.06-0.85,2.11,0.34,2.96c0.17,0.12,0.76,0.39,0.74,0.66c-0.03,0.42-0.13,0.82-0.21,1.23c-0.11,0.57,0.05,1,0.38,1.46
	c0.1,0.13,0.24,0.19,0.4,0.11c0.7-0.36,1.36-0.78,2.05-1.15c0.02,0.74-0.06,1.72,0.72,1.99c0.91,0.32,1.36-0.5,1.93-1.05
	c0.06,0.46,0,0.89-0.14,1.37c-0.05,0.17,0.05,0.37,0.22,0.4c0.66,0.16,1.31-0.18,1.87-0.54c0.15,0.3,0.3,0.7-0.06,0.76
	c-0.26,0.05-0.29,0.38-0.15,0.54c0.29,0.35,0.65,0.34,1.02,0.27c-0.11,0.51-0.24,0.96,0.29,1.33c0.14,0.09,0.38,0.05,0.51-0.02
	c0.48-0.26,0.86-0.01,1.3,0.19c0.44,0.19,1.07,0.34,1.35-0.19c0.34-0.64,0.13-1.12,0.07-1.71c0.46,0.21,0.96,0.58,0.64,1.03
	c-0.16,0.23-0.28,0.45-0.28,0.74c-0.01,0.41,0.45,0.89,0.79,1.08c1.06,0.61,1.31-0.15,1.43-0.96c0.44,0.3,0.81,0.76,1.17,1.17
	c-0.03,0.02-0.06,0.03-0.08,0.05c-0.23,0.15-0.21,0.42-0.01,0.57c1.15,0.9,1.52-0.15,1.64-1.21c0.3,0.77,0.57,1.58,1.36,1.85
	c0.73,0.25,1.24-1.11,1.73-1.37c0.15-0.08,0.2-0.29,0.11-0.43c-0.15-0.27-0.34-0.51-0.5-0.77c0.75,0.08,1.63,0.37,0.85,1.2
	c-0.19,0.2-0.07,0.52,0.21,0.54c1.32,0.05,1.49-0.38,1.65-1.41c0.67,0.31,1.29,0.95,0.8,1.73c-0.11,0.17,0,0.38,0.18,0.45
	c0.76,0.27,2.32,1.09,3.08,0.43c0.65-0.57,0.61-1.58,0.48-2.42c0.23,0.07,0.46,0.19,0.69,0.3c0.15,0.53,0.39,1.39,0.79,1.46
	c0.69,0.13,1.42-0.34,1.88-0.82c0.17-0.17,0.2-0.4,0.15-0.63c-0.04-0.18-0.09-0.36-0.14-0.55c-0.02-0.07-0.07-0.96,0.18-0.53
	c0.38,0.67,0.45,1.51,0.92,2.13c0.16,0.2,0.45,0.06,0.52-0.14c0.05-0.15,0.5-1.37,0.93-0.72c0.09,0.13,0.16,0.22,0.27,0.33
	c0.14,0.16,0.52,0.36,0.75,0.36c0.38,0,1.03-0.78,1.22-1.05c0.52-0.71,0.19-1.26-0.19-1.96c-0.43-0.77,0.52,0.03,0.74,0.21
	c0.21,0.18,0.42,0.34,0.66,0.47c0.17,0.08,0.33,0.04,0.45-0.12c0.33-0.44,0.64-0.87,0.97-1.29c0.36,0.69,0.16,1.61,0.67,2.28
	c0.08,0.1,0.29,0.13,0.39,0.06c0.5-0.38,1.68-0.22,2.01-0.8c0.34-0.61,0.04-1.13-0.14-1.73c0.85,0.33,1.32,1.63,2.07,2.13
	c0.14,0.1,0.35,0.03,0.43-0.11c0.36-0.62,0.88-1.08,1.36-1.59c0.11-0.12,0.14-0.33,0-0.45c-0.26-0.23-0.51-0.48-0.75-0.74
	c0.21-0.36,1.24,0.1,1.52,0.16c0.15,0.03,0.27-0.04,0.31-0.17c0.09-0.27,0.14-0.52,0.14-0.78c0.14,0.09,0.28,0.16,0.46,0.22
	c0.24,0.08,0.4-0.2,0.31-0.4c-0.19-0.42-0.51-1.32,0.33-0.8c0.15,0.09,0.37,0.01,0.42-0.17c0.11-0.4,0.06-0.8,0.11-1.21
	c0.05-0.32,1.02,0.91,1.1,1.04c0.1,0.15,0.27,0.19,0.43,0.11c1.31-0.62,1.17-1.48,1.17-2.6c0.32,0.2,0.64,0.39,1.04,0.44
	c0.24,0.04,0.42-0.08,0.44-0.33c0.06-0.52,0.02-1.05,0.01-1.57c0.18,0.21,0.41,0.35,0.71,0.27c0.71-0.18,0.8-1.27,1.72-0.84
	c0.21,0.1,0.42-0.05,0.38-0.28c-0.06-0.33-0.24-0.57-0.45-0.83c-0.02-0.02-0.72-1.1-0.2-0.91c0.31,0.11,0.54,0.27,0.75,0.52
	c0.13,0.15,0.39,0.07,0.44-0.11c0.22-0.73,0.61-1.48,0.03-2.13c-0.21-0.23-0.36-0.44-0.62-0.6c-0.13-0.07-0.25-0.16-0.37-0.26
	c0.18,0.03,0.36,0.05,0.53,0.08c0.18,0.13,0.36,0.27,0.51,0.44c0.18,0.17,0.5,0.06,0.5-0.2c-0.01-0.51-0.03-1,0.06-1.48
	c0.3,0.44,0.48,0.96,0.75,1.42c0.11,0.17,0.32,0.18,0.46,0.06c0.7-0.55,2.22-1.57,1.79-2.68c-0.15-0.37-0.42-0.61-0.76-0.82
	c-0.21-0.13-0.43-0.24-0.66-0.34c0.1-1.13,0.91-0.16,1.24,0.31c0.12,0.18,0.44,0.14,0.43-0.11c-0.04-1.14,0.25-1.82,1.27-2.4
	c0.16-0.09,0.16-0.32,0-0.42c-0.45-0.28-0.87-0.65-1.09-1.15c-0.44-1,0.45,0.09,0.63,0.34c0.14,0.2,0.41,0.17,0.51-0.06
	c0.37-0.95,0.98-1.76,1.47-2.64c0.11-0.19-0.02-0.43-0.24-0.44c-0.34-0.01-0.63,0.01-0.95,0.11c-0.17,0.05-0.36,0.11-0.53,0.16
	c-0.04-0.21-0.08-0.41-0.12-0.61c0.14,0.08,0.28,0.16,0.41,0.26c0.16,0.12,0.39-0.01,0.44-0.17c0.2-0.59,0.41-1.17,0.54-1.77
	c0.03-0.16-0.04-0.33-0.2-0.38c-0.46-0.13-0.9-0.09-1.37-0.15c-0.63-0.36-0.7-0.52-0.21-0.48l0.34,0.06
	c0.18,0.05,0.34,0.14,0.48,0.27c0.12,0.09,0.35,0.04,0.41-0.1C72.52,38.38,72.85,37.66,73.17,36.93z"/>
<path class="st1" d="M67.98,44.92c0.03-1.29-1.23-1.15-1.91-0.58c-0.38,0.31-0.63,0.49-0.76-0.15c-0.11-0.53,0.22-0.82,0.52-1.18
	c0.3-0.36,0.57-0.81,0.23-1.24c-0.4-0.51-1.05-0.78-1.7-0.74c-0.3,0.01-0.7,0.11-0.99,0.02c-0.31-0.09-0.16-0.64,0-1.06
	c0.31,0.22,0.64,0.42,0.89,0.72c0.11,0.13,0.32,0.1,0.43,0c0.32-0.28,0.66-0.54,0.98-0.83c0.07-0.07,0.11-0.2,0.08-0.3
	c-0.23-0.58-0.47-1.17-0.73-1.75c0.11-0.05,0.21-0.1,0.33-0.15c0.15-0.06,0.19-0.29,0.11-0.41c-0.07-0.11-0.15-0.23-0.23-0.36
	c0.08-0.01,0.16-0.02,0.25-0.03c0.17-0.01,0.3-0.13,0.31-0.3c0.03-1.05,0.49-4.62-1.59-4.24c-0.69,0.13-1.22,0.24-1.58,0.87
	c-0.08,0.15-0.05-0.05-0.17-0.27c-0.24-0.43-0.26-0.75-0.28-1.23c-0.03-0.49-0.09-0.89-0.29-1.32c-0.08-0.17-0.35-0.2-0.47-0.06
	c-0.56,0.61-1.27,1.24-1.86,0.29c-0.19-0.29-0.34-0.6-0.5-0.9c0.95-0.07,1.94-0.73,1.8-1.81c-0.2-1.41-1.33-1.3-2.39-1.61
	c0.24-0.49,0.32-1,0.43-1.56c0.04-0.18-0.08-0.4-0.29-0.39c-0.76,0.03-1.35,0.24-1.91,0.68c-0.35-0.48-0.67-0.98-0.92-1.51
	c1.74,0.14,0.95-2.58-0.12-3.45c-0.14-0.11-0.31-0.14-0.45-0.01c-0.37,0.37-0.7,0.82-1.11,1.14c-0.45,0.37-0.9,0.22-1.34-0.02
	c1.25-1.28-0.18-2.9-1.7-3.48c-0.2-0.08-0.42,0.11-0.42,0.31c0.02,0.86,0.3,1.87,0.04,2.71c-0.29,0.94-1.84-0.05-2.56-0.63
	c0.56-0.46,1.17-1.17,0.48-1.77c-0.6-0.52-1.44-0.66-2.11-1.08c0.25-0.11,0.49-0.26,0.75-0.37c0.2-0.09,0.21-0.38,0.08-0.52
	c-1.05-1.05-2.14-2.05-3.19-3.1c-0.17-0.17-0.5-0.11-0.55,0.14c-0.17,0.86,0.07,1.68,0.11,2.53c-0.95-0.5-1.2-1.25-1.58-2.31
	c-0.25-0.67-0.53-1.36-1.1-1.81c-1.03-0.81-1.34,0.34-1.37,1.24c-0.33-0.16-0.68-0.3-1.02-0.45c-0.23-0.11-0.59,0.07-0.48,0.37
	c0.18,0.52,0.3,1.03,0.23,1.55c-0.4-0.3-0.84-0.55-1.3-0.77c0.96-1.13-0.03-2.52-1.67-2.34c-1.92,0.22-1.16,1.51-0.81,2.76
	c-0.32,0.09-0.6,0.2-0.89,0.35c-0.39-1.05-0.55-2.18-1.96-2.04c-0.45,0.04-2.33,0.56-2.03,1.38c0.18,0.46,1.77,1.26,2.53,1.94
	c-0.07,0.02-0.13,0.05-0.17,0.11c-0.1,0.17-0.2,0.33-0.31,0.5c-0.63-0.33-1.36-0.45-2.11-0.56c-0.21-0.03-0.34,0.21-0.3,0.38
	c0.08,0.4,0.1,0.78,0.11,1.17c-0.44-0.22-0.9-0.27-1.37-0.11c0.09-0.6,0.1-1.18-0.08-1.78c-0.04-0.13-0.17-0.25-0.31-0.24
	c-1.18,0.12-2.31,0.61-2.23,1.96c0.06,1.08,0.83,2.14,1.62,2.86c-0.57,0.59-2.32,1.69-2.54,0.67c-0.17-0.77,0.04-1.58-0.39-2.29
	c-0.12-0.19-0.42-0.21-0.53-0.01c-0.47,0.83-0.9,1.67-1.45,2.44c-0.5-0.69-0.81-1.44-1.63-1.88c-0.19-0.1-0.49,0.01-0.48,0.27
	c0.06,0.92-0.12,2.19,0.3,3.04c0.39,0.79,1.33,1.25,2.11,1.66c-0.71,0.68-1.49,1.66-2.41,1.86c-1.17,0.25-0.72-2.09-1.02-2.78
	c-0.08-0.19-0.35-0.16-0.45-0.01c-0.05,0.11-0.13,0.22-0.2,0.31c-0.46-0.48-1.27-1.24-1.74-0.52c-0.16,0.26-0.2,0.58-0.19,0.94
	c-0.13-0.11-0.25-0.21-0.42-0.28c-0.25-0.12-0.54,0.07-0.48,0.36c0.1,0.5,1.25,1.9,0.42,2.27c-0.19,0.09-0.34-0.5-0.42-0.62
	c-0.29-0.41-0.64-0.47-1.01-0.36c0.05-0.54,0.02-1.08-0.14-1.6c-0.06-0.2-0.26-0.26-0.44-0.19c-0.4,0.18-0.67,0.42-1.13,0.3
	c-0.17-0.05-0.31-0.04-0.48,0.01c-0.26,0.08-0.54,0.38-0.54,0.66c-0.01,0.42,0.43,0.68,0.63,0.99c0.06,0.08,0.11,0.17,0.17,0.26
	c0.26,0.38,0.06,0.46-0.6,0.24c-0.13-0.21-0.26-0.41-0.4-0.62c-0.12-0.17-0.36-0.18-0.48,0c-0.33,0.47-1.88,1.4-1.47,2.14
	c0.12,0.24,0.33,0.38,0.57,0.47c-0.03,0.08-0.01,0.17,0.1,0.22c0.24,0.11,0.45,0.24,0.64,0.43c0.29,0.85,0.13,1.32-0.49,1.39
	c-0.1-0.21-0.17-0.44-0.27-0.66c-0.14-0.32-0.29-0.58-0.61-0.74c-0.62-0.34-1.66,0.2-2.1,0.6c-1.34,1.22,0.19,2.44,1.32,1.71
	c0.14,0.44,0.2,0.95,0.16,1.39c-0.05,0.51,0.13,0.49-0.3,0.2c-0.36-0.24-1.06-0.4-1.46-0.17C6.33,32.74,7,34.4,7.16,35.13
	c0.05,0.21,0.28,0.27,0.46,0.19c0.81-0.39,1.02,0.11,1.28,0.73c-0.33,0.33-0.79,0.74-1.29,0.35c-0.16-0.12-0.4,0.01-0.45,0.18
	c-0.23,0.83-0.41,1.66-0.45,2.53c-0.01,0.16,0.14,0.32,0.3,0.31c0.33-0.01,0.58-0.07,0.89-0.2c1.21-0.49,1.64,1.24,0.24,1.38
	c-0.33,0.03-0.79,0.04-1.02,0.31c-0.65,0.79-0.11,1.73,0.04,2.61c0.02,0.15,0.23,0.28,0.38,0.22c0.61-0.25,1.19-0.58,1.82-0.78
	c0.28-0.08,1.3-0.38,1.21,0.34c-0.08,0.69-0.81,0.83-1.36,0.59c-0.18-0.08-0.48,0-0.46,0.25c0.1,0.93,0.35,1.8,1.05,2.46
	c0.09,0.09,0.26,0.13,0.36,0.05c0.38-0.27,0.75-0.57,1.14-0.81c0.29,0.4,0.69,0.5,1.23,0.43c0.11-0.01,0.23-0.02,0.35-0.03
	c0.02,0.19,0.03,0.37,0.05,0.56c-0.21,0.16-0.46,0.26-0.73,0.31c-0.32,0.06-0.62,0.09-0.95,0.1c-0.15,0.01-0.33,0.14-0.31,0.31
	c0.11,0.94,0.68,1.6,1.33,2.26c0.11,0.11,0.33,0.14,0.44,0.01c0.38-0.44,0.81-0.39,1.18-0.15c-0.55,0.04-1.24-0.07-1.42,0.52
	c-0.15,0.54,0.23,1.22,0.46,1.68c0.21,0.41,0.35,1.19,0.84,1.37c0.25,0.1,0.54,0.11,0.79,0.02c0.21-0.07,0.77-0.5,0.96-0.21
	c0.17,0.24,0.48,0.2,0.59-0.07c0.24-0.61,0.77,0.35,0.87,0.5c0.13,0.2,0.43,0.23,0.56,0.01c0.21-0.38,1.46-1.01,1.75-0.34
	c0.25,0.57-0.29,0.73-0.72,0.81c-0.61,0.13-1.22,0.13-1.82,0.23c-0.18,0.03-0.26,0.24-0.23,0.4c0.19,0.95,1.02,1.66,1.67,2.32
	c0.13,0.13,0.33,0.13,0.47,0.01c0.31-0.37,0.74-0.52,1.29-0.46c0.13,0.04,0.3-0.03,0.36-0.15c0.62,0.15,0.75,0.44,0.39,0.85
	c-0.08,0.15-0.17,0.3-0.26,0.43c-0.09,0.14-0.04,0.36,0.11,0.44c0.67,0.34,1.56,0.29,2.14-0.24c0.55-0.51,0.62-1.06,0.69-1.71
	c0.56,0.31,1.32,0.96,0.86,1.55c-0.24,0.31-0.64,0.45-0.97,0.63c-0.15,0.08-0.21,0.3-0.12,0.45c0.45,0.74,1.03,1.31,1.78,1.74
	c0.2,0.12,0.4,0.01,0.48-0.19c0.63-1.52,1.22,0.64,1.39,1.02c0.15,0.34,0.33,0.61,0.71,0.7c0.77,0.18,1.29-0.8,1.19-1.43
	c-0.02-0.14-0.05-0.29-0.08-0.43c-0.18-0.44,0.04-0.62,0.68-0.54c0.39,0.43,0.44,0.92,0.53,1.45c0.07,0.44,0.23,0.89,0.61,1.14
	c0.47,0.29,1.44-0.22,2.02-0.6c0.11,0.16,0.23,0.31,0.38,0.44c0.13,0.12,0.02,0.48,0.02,0.65c0.01,0.27,0.18,0.57,0.4,0.73
	c0.48,0.35,0.99,0.24,1.28-0.18c0.57,0.14,1.03,0.59,1.61,0.73c0.19,0.05,0.45-0.09,0.42-0.32c-0.05-0.46-0.11-0.92-0.13-1.39
	c0.4,0.36,0.67,0.73,1.42,0.66c0.1-0.01,0.18-0.04,0.26-0.07c-0.14,0.42-0.33,0.83-0.36,1.03c-0.04,0.15,0.06,0.3,0.23,0.3
	c1.01,0.04,2,0.11,3-0.1c0.13-0.02,0.23-0.19,0.18-0.31c-0.18-0.48-0.25-0.98-0.33-1.49c1.09,0.07,1.47,1.2,1.6,2.2
	c0.01,0.09,0.12,0.2,0.21,0.21c1.67,0.33,2.84-1.03,2.21-2.45c0.2,0.02,0.4,0.05,0.6,0.12c0.21,0.07,0.39-0.11,0.41-0.31
	c0.18-1.52,0.99,0.01,1.02,0.71c0.01,0.16,0.14,0.34,0.32,0.32c1.07-0.07,1.74-0.89,2.74-1.11c0.14-0.03,0.26-0.17,0.24-0.31
	c-0.06-0.84-0.45-1.52-0.84-2.24c1.04-0.37,1.28,1.39,1.47,2.19c0.06,0.25,0.36,0.3,0.53,0.14c0.71-0.6,1.64-0.75,2.41-1.22
	c0.13,0.51,0.13,1.05,0.12,1.58c-0.01,0.2,0.2,0.38,0.4,0.31c1.2-0.39,2.18-1.16,2.86-2.22c0.07-0.11,0.06-0.3-0.05-0.38
	c-0.63-0.5-1.34-0.95-1.63-1.7c0.3-0.11,0.65-0.19,0.74,0.13c0.05,0.19,0.09,0.37,0.16,0.55c0.12,0.39,0.41,0.66,0.77,0.83
	c0.94,0.43,1.44-0.15,2.4-0.1c0.14,0.01,0.26-0.09,0.3-0.22c0.26-0.76,0.27-1.48-0.52-1.86c-0.68-0.33-0.79-0.69-0.37-1.39
	c0.28-0.47,0.47-0.91,0.53-1.46c0.02-0.17-0.16-0.31-0.32-0.32c-0.39-0.02-1.26-0.15-1.35-0.68c-0.09-0.51,1.07-0.36,1.23-0.24
	c0.2,0.14,0.35,0.3,0.48,0.51c0.38,0.64,0.59,1.35,0.9,2.02c0.09,0.21,0.43,0.19,0.53,0c0.42-0.79,1.56-1.14,1.43-2.17
	c-0.11-0.89-1.1-1.48-1.66-2.15c0.4-0.31,0.81-0.16,1.25,0.48c0.06,0.2,0.33,0.31,0.49,0.14c0.32-0.36,0.66-0.4,1.05-0.11
	c0.09,0.07,0.26,0.05,0.33-0.04c0.43-0.46,0.71-1.02,0.41-1.65c-0.32-0.66-1.11-1.17-0.5-1.74c0.28,0.38,0.62,0.66,1.03,0.95
	c0.12,0.08,0.34,0.04,0.41-0.11c0.13-0.3,0.33-0.56,0.51-0.83c0.11,0.08,0.22,0.16,0.35,0.24c0.1,0.07,0.27,0.06,0.35-0.04
	c0.41-0.49,0.64-1.19,0.88-1.77C67.56,46.41,67.96,45.63,67.98,44.92z"/>
<path class="st2" d="M51.9,42.33c0.01-0.68-0.64-0.6-1-0.3c-0.2,0.17-0.33,0.26-0.39-0.07c-0.06-0.28,0.11-0.43,0.27-0.62
	c0.15-0.18,0.3-0.42,0.13-0.64c-0.21-0.27-0.55-0.41-0.89-0.4c-0.15,0.01-0.36,0.07-0.52,0.02c-0.17-0.05-0.08-0.34-0.01-0.56
	c0.17,0.11,0.34,0.22,0.47,0.38c0.06,0.07,0.17,0.05,0.23,0c0.16-0.15,0.35-0.29,0.51-0.44c0.04-0.03,0.06-0.1,0.04-0.15
	c-0.12-0.31-0.24-0.61-0.38-0.92c0.06-0.02,0.12-0.05,0.17-0.07c0.08-0.02,0.1-0.15,0.06-0.21c-0.04-0.06-0.08-0.13-0.12-0.19
	c0.04-0.01,0.09-0.01,0.13-0.01c0.09-0.01,0.15-0.07,0.16-0.15c0.02-0.55,0.26-2.42-0.83-2.22c-0.36,0.07-0.63,0.13-0.83,0.45
	c-0.04,0.08-0.02-0.02-0.09-0.14c-0.13-0.23-0.14-0.4-0.15-0.64c-0.01-0.26-0.05-0.46-0.15-0.69c-0.04-0.09-0.18-0.11-0.24-0.04
	c-0.29,0.33-0.66,0.65-0.97,0.16c-0.1-0.16-0.18-0.31-0.26-0.47c0.5-0.04,1.02-0.38,0.94-0.95c-0.11-0.74-0.7-0.69-1.25-0.84
	c0.12-0.26,0.17-0.53,0.22-0.82c0.02-0.1-0.04-0.21-0.15-0.21c-0.4,0.01-0.71,0.13-1,0.36c-0.19-0.25-0.35-0.51-0.48-0.79
	c0.91,0.07,0.5-1.35-0.06-1.81c-0.07-0.05-0.16-0.06-0.24,0c-0.19,0.2-0.36,0.43-0.57,0.6c-0.24,0.2-0.48,0.11-0.7-0.01
	c0.65-0.68-0.1-1.52-0.89-1.82c-0.1-0.04-0.22,0.06-0.22,0.16c0.01,0.45,0.15,0.98,0.02,1.42c-0.15,0.49-0.97-0.03-1.35-0.33
	c0.29-0.24,0.61-0.62,0.25-0.93c-0.31-0.27-0.76-0.35-1.1-0.56c0.13-0.06,0.25-0.14,0.39-0.2c0.1-0.05,0.11-0.2,0.04-0.27
	c-0.55-0.55-1.12-1.07-1.67-1.63c-0.09-0.08-0.26-0.05-0.29,0.08c-0.09,0.45,0.04,0.88,0.06,1.32c-0.5-0.25-0.63-0.65-0.83-1.2
	c-0.12-0.35-0.28-0.71-0.57-0.95c-0.54-0.42-0.7,0.18-0.72,0.65c-0.18-0.08-0.36-0.16-0.54-0.24c-0.12-0.06-0.31,0.04-0.25,0.2
	c0.09,0.27,0.15,0.54,0.12,0.81c-0.21-0.16-0.44-0.29-0.68-0.4c0.5-0.59-0.01-1.32-0.88-1.23c-1,0.12-0.61,0.8-0.43,1.45
	c-0.17,0.04-0.31,0.09-0.47,0.18c-0.2-0.55-0.29-1.15-1.02-1.07c-0.23,0.02-1.22,0.29-1.06,0.72c0.09,0.24,0.93,0.66,1.32,1.01
	c-0.03,0.01-0.07,0.03-0.09,0.06c-0.05,0.09-0.11,0.17-0.17,0.26c-0.33-0.17-0.71-0.23-1.11-0.29c-0.11-0.02-0.17,0.11-0.16,0.2
	c0.04,0.2,0.05,0.4,0.05,0.6c-0.23-0.11-0.47-0.13-0.72-0.05c0.05-0.31,0.05-0.61-0.04-0.93c-0.02-0.07-0.09-0.13-0.16-0.13
	c-0.62,0.07-1.21,0.32-1.17,1.03c0.03,0.56,0.44,1.12,0.85,1.5c-0.29,0.31-1.21,0.89-1.33,0.35c-0.08-0.4,0.02-0.83-0.21-1.2
	c-0.06-0.09-0.21-0.11-0.27,0c-0.24,0.43-0.47,0.87-0.76,1.27c-0.26-0.36-0.42-0.75-0.85-0.98c-0.1-0.05-0.26,0.01-0.25,0.14
	c0.03,0.48-0.07,1.15,0.15,1.59c0.21,0.41,0.7,0.66,1.11,0.87c-0.38,0.36-0.78,0.86-1.26,0.97c-0.61,0.13-0.38-1.09-0.54-1.45
	c-0.04-0.09-0.19-0.08-0.23-0.01c-0.03,0.06-0.07,0.12-0.11,0.17c-0.24-0.25-0.66-0.65-0.9-0.27c-0.09,0.13-0.11,0.3-0.1,0.5
	c-0.07-0.06-0.13-0.11-0.22-0.15c-0.13-0.07-0.28,0.04-0.25,0.19c0.05,0.26,0.65,1,0.22,1.19c-0.1,0.05-0.17-0.26-0.22-0.32
	c-0.15-0.21-0.33-0.25-0.52-0.19c0.02-0.28,0.01-0.56-0.07-0.84c-0.04-0.11-0.14-0.14-0.23-0.09c-0.21,0.09-0.35,0.21-0.59,0.15
	c-0.09-0.02-0.16-0.02-0.25,0.01c-0.14,0.04-0.28,0.2-0.28,0.35c-0.01,0.21,0.22,0.36,0.33,0.52c0.03,0.04,0.06,0.09,0.09,0.14
	c0.14,0.2,0.04,0.24-0.31,0.13c-0.08-0.1-0.14-0.22-0.22-0.32c-0.06-0.09-0.18-0.09-0.25,0c-0.17,0.24-0.98,0.73-0.77,1.12
	c0.07,0.12,0.17,0.19,0.3,0.25c-0.01,0.04,0,0.09,0.05,0.11c0.12,0.05,0.24,0.13,0.33,0.22c0.15,0.45,0.07,0.69-0.25,0.73
	c-0.05-0.11-0.09-0.24-0.14-0.34c-0.07-0.17-0.15-0.31-0.32-0.4c-0.32-0.17-0.87,0.11-1.1,0.32c-0.7,0.64,0.1,1.27,0.69,0.89
	c0.08,0.23,0.1,0.49,0.08,0.73c-0.03,0.27,0.07,0.26-0.15,0.11c-0.19-0.13-0.56-0.21-0.77-0.09c-0.48,0.27-0.13,1.14-0.04,1.52
	c0.02,0.11,0.15,0.15,0.24,0.1c0.42-0.21,0.54,0.06,0.67,0.38c-0.17,0.17-0.41,0.38-0.67,0.18c-0.08-0.06-0.21,0.01-0.24,0.09
	c-0.12,0.44-0.22,0.87-0.24,1.33c0,0.08,0.08,0.16,0.16,0.15c0.17,0,0.3-0.03,0.47-0.1c0.64-0.26,0.86,0.64,0.13,0.73
	c-0.17,0.01-0.41,0.02-0.53,0.17c-0.34,0.41-0.06,0.9,0.02,1.36c0.01,0.08,0.12,0.15,0.19,0.11c0.32-0.13,0.62-0.3,0.96-0.4
	c0.14-0.05,0.68-0.2,0.64,0.17c-0.05,0.36-0.43,0.44-0.71,0.31c-0.1-0.04-0.26,0-0.24,0.14c0.05,0.48,0.18,0.94,0.55,1.28
	c0.04,0.04,0.13,0.07,0.19,0.03c0.2-0.15,0.39-0.3,0.6-0.42c0.15,0.2,0.36,0.25,0.64,0.22c0.06-0.01,0.12-0.01,0.18-0.01
	c0.02,0.09,0.02,0.19,0.03,0.29c-0.11,0.08-0.24,0.14-0.38,0.16c-0.17,0.03-0.33,0.05-0.5,0.05c-0.08,0-0.17,0.07-0.16,0.16
	c0.05,0.49,0.36,0.84,0.69,1.18c0.06,0.07,0.17,0.08,0.23,0.01c0.19-0.23,0.42-0.2,0.62-0.08c-0.29,0.02-0.65-0.03-0.74,0.28
	c-0.08,0.28,0.12,0.63,0.24,0.87c0.11,0.22,0.18,0.63,0.44,0.72c0.13,0.05,0.28,0.06,0.41,0.01c0.11-0.04,0.4-0.26,0.5-0.11
	c0.09,0.13,0.26,0.11,0.31-0.04c0.14-0.31,0.41,0.18,0.46,0.26c0.06,0.1,0.22,0.12,0.29,0c0.11-0.19,0.77-0.53,0.92-0.17
	c0.13,0.3-0.15,0.38-0.38,0.43c-0.32,0.07-0.64,0.07-0.95,0.11c-0.1,0.02-0.15,0.13-0.13,0.21c0.1,0.5,0.54,0.88,0.88,1.22
	c0.06,0.07,0.17,0.07,0.24,0c0.17-0.19,0.4-0.27,0.68-0.24c0.07,0.02,0.16-0.01,0.19-0.08c0.32,0.09,0.4,0.23,0.21,0.45
	c-0.04,0.08-0.09,0.15-0.14,0.23c-0.05,0.07-0.02,0.19,0.06,0.23c0.35,0.18,0.82,0.15,1.12-0.13c0.29-0.27,0.32-0.55,0.36-0.89
	c0.3,0.16,0.7,0.5,0.46,0.81c-0.13,0.16-0.34,0.24-0.51,0.33c-0.08,0.05-0.11,0.16-0.06,0.23c0.23,0.39,0.54,0.69,0.92,0.91
	c0.11,0.06,0.21,0,0.25-0.1c0.34-0.8,0.64,0.34,0.73,0.53c0.08,0.18,0.18,0.32,0.37,0.37c0.4,0.09,0.68-0.42,0.62-0.74
	c-0.02-0.08-0.03-0.15-0.04-0.23c-0.1-0.23,0.02-0.33,0.36-0.29c0.2,0.23,0.23,0.48,0.28,0.76c0.03,0.22,0.12,0.46,0.32,0.59
	c0.24,0.15,0.75-0.11,1.05-0.31c0.06,0.08,0.12,0.16,0.2,0.23c0.07,0.06,0.01,0.25,0.01,0.34c0,0.14,0.09,0.3,0.2,0.38
	c0.25,0.18,0.52,0.12,0.67-0.1c0.3,0.07,0.54,0.31,0.85,0.38c0.1,0.02,0.23-0.05,0.22-0.17c-0.03-0.24-0.06-0.48-0.07-0.72
	c0.21,0.19,0.35,0.38,0.74,0.34c0.05-0.01,0.1-0.02,0.13-0.04c-0.07,0.23-0.17,0.44-0.19,0.54c-0.02,0.08,0.03,0.15,0.12,0.16
	c0.53,0.01,1.05,0.06,1.57-0.05c0.07-0.01,0.12-0.1,0.09-0.17c-0.09-0.26-0.13-0.52-0.17-0.78c0.57,0.04,0.77,0.62,0.83,1.15
	c0.01,0.05,0.06,0.11,0.11,0.11c0.87,0.17,1.48-0.54,1.16-1.29c0.1,0.02,0.21,0.03,0.31,0.07c0.11,0.04,0.2-0.06,0.21-0.16
	c0.1-0.8,0.52,0.01,0.54,0.37c0.01,0.09,0.08,0.17,0.17,0.17c0.56-0.04,0.91-0.47,1.44-0.58c0.07-0.01,0.13-0.09,0.13-0.16
	c-0.03-0.44-0.24-0.8-0.44-1.17c0.55-0.19,0.67,0.73,0.77,1.15c0.03,0.13,0.19,0.15,0.28,0.07c0.37-0.32,0.85-0.39,1.26-0.64
	c0.06,0.27,0.06,0.56,0.06,0.83c0,0.11,0.11,0.2,0.21,0.16c0.63-0.2,1.15-0.6,1.5-1.16c0.04-0.05,0.04-0.15-0.02-0.2
	c-0.33-0.26-0.7-0.49-0.85-0.89c0.15-0.05,0.34-0.09,0.39,0.07c0.02,0.09,0.05,0.19,0.08,0.29c0.06,0.2,0.22,0.34,0.4,0.44
	c0.5,0.23,0.76-0.07,1.26-0.05c0.08,0,0.14-0.05,0.16-0.12c0.14-0.4,0.15-0.77-0.27-0.97c-0.36-0.18-0.41-0.36-0.2-0.73
	c0.15-0.25,0.24-0.47,0.28-0.77c0.01-0.09-0.08-0.15-0.17-0.16c-0.21-0.02-0.66-0.09-0.71-0.36c-0.05-0.27,0.56-0.19,0.65-0.13
	c0.1,0.07,0.18,0.16,0.25,0.26c0.2,0.34,0.31,0.71,0.47,1.06c0.05,0.11,0.23,0.1,0.28,0c0.22-0.41,0.81-0.59,0.74-1.13
	c-0.06-0.47-0.58-0.77-0.87-1.13c0.21-0.17,0.42-0.08,0.65,0.26c0.04,0.1,0.17,0.16,0.26,0.07c0.17-0.19,0.34-0.21,0.55-0.05
	c0.05,0.03,0.14,0.02,0.17-0.02c0.23-0.24,0.38-0.54,0.22-0.86c-0.17-0.35-0.58-0.62-0.27-0.91c0.14,0.2,0.33,0.36,0.54,0.5
	c0.06,0.05,0.17,0.02,0.21-0.05c0.07-0.15,0.17-0.3,0.27-0.44c0.06,0.05,0.12,0.09,0.19,0.13c0.05,0.03,0.14,0.02,0.18-0.02
	c0.21-0.26,0.33-0.62,0.46-0.92C51.69,43.11,51.9,42.7,51.9,42.33z"/>
</svg>
