<?xml version="1.0" encoding="utf-8"?>
<!-- Generator: Adobe Illustrator 24.0.1, SVG Export Plug-In . SVG Version: 6.00 Build 0)  -->
<svg version="1.1" id="Layer_1" xmlns="http://www.w3.org/2000/svg" xmlns:xlink="http://www.w3.org/1999/xlink" x="0px" y="0px"
	 viewBox="0 0 57.83 127.29" style="enable-background:new 0 0 57.83 127.29;" xml:space="preserve">
<style type="text/css">
	.st0{fill:#F19222;}
	.st1{fill:url(#SVGID_1_);}
	.st2{fill:url(#SVGID_2_);}
	.st3{fill:url(#SVGID_3_);}
	.st4{fill:url(#SVGID_4_);}
	.st5{fill:url(#SVGID_5_);}
	.st6{fill:url(#SVGID_6_);}
	.st7{fill:url(#SVGID_7_);}
	.st8{fill:url(#SVGID_8_);}
	.st9{fill:url(#SVGID_9_);}
	.st10{fill:url(#SVGID_10_);}
	.st11{fill:url(#SVGID_11_);}
	.st12{fill:url(#SVGID_12_);}
	.st13{fill:url(#SVGID_13_);}
	.st14{fill:url(#SVGID_14_);}
	.st15{fill:url(#SVGID_15_);}
	.st16{fill:url(#SVGID_16_);}
	.st17{fill:url(#SVGID_17_);}
	.st18{fill:url(#SVGID_18_);}
	.st19{fill:url(#SVGID_19_);}
	.st20{fill:url(#SVGID_20_);}
	.st21{fill:url(#SVGID_21_);}
	.st22{fill:url(#SVGID_22_);}
	.st23{fill:url(#SVGID_23_);}
	.st24{fill:#5B5B5B;}
	.st25{fill:#9E9E9E;}
	.st26{fill:url(#SVGID_24_);}
	.st27{fill:url(#SVGID_25_);}
	.st28{fill:url(#SVGID_26_);}
	.st29{fill:url(#SVGID_27_);}
	.st30{fill:url(#SVGID_28_);}
	.st31{fill:url(#SVGID_29_);}
	.st32{fill:url(#SVGID_30_);}
	.st33{fill:url(#SVGID_31_);}
</style>
<g>
	<g>
		<path class="st0" d="M54.21,20.99c-0.58-5.6-1.51-8.49-3.15-10.82c-0.68,0.17-1.42,0.02-2.04-0.49l-5.95-4.86
			c-0.63-0.51-0.99-1.28-1.09-2.1c-0.28-0.11-0.57-0.22-0.87-0.32v6.16H16.74V2.41c-0.29,0.1-0.59,0.21-0.87,0.32
			c-0.09,0.82-0.46,1.59-1.09,2.1L8.83,9.69c-0.61,0.5-1.35,0.65-2.04,0.49c-1.65,2.33-2.57,5.22-3.15,10.82
			c-1.53,14.81,1.07,38.08,1,43.81c-0.34,30.57-0.57,49.19,1.25,55.63c0.34,1.22,1.2,2.23,2.39,3.07c0.25-0.13,0.56-0.22,0.94-0.22
			c2.12,0,3.15,1.54,5.49,1.1c1.55-0.29,2.07,1.14,2.25,2.14c1.39,0.25,2.78,0.42,4.1,0.56c0.22-0.34,0.57-0.56,0.97-0.56h13.74
			c0.4,0,0.75,0.22,0.97,0.56c0.99-0.1,2.02-0.23,3.06-0.39c0.15-1,0.64-2.63,2.28-2.32c2.34,0.44,3.38-1.1,5.5-1.1
			c0.66,0,1.11,0.25,1.42,0.58c1.48-0.9,2.56-2.03,2.95-3.44c1.82-6.44,1.59-25.06,1.25-55.63C53.15,59.07,55.75,35.8,54.21,20.99z"
			/>
		
			<linearGradient id="SVGID_1_" gradientUnits="userSpaceOnUse" x1="352.8679" y1="-40.9801" x2="377.2489" y2="-40.9801" gradientTransform="matrix(1 0 0 -1 -336.1328 -36.3964)">
			<stop  offset="0" style="stop-color:#383D3B"/>
			<stop  offset="1" style="stop-color:#1B1C1C"/>
		</linearGradient>
		<path class="st1" d="M41.12,8.57V2.41C34.16,0,23.69,0,16.74,2.41v6.16H41.12z"/>
		
			<radialGradient id="SVGID_2_" cx="365.055" cy="6471.6597" r="25.465" gradientTransform="matrix(1 0 0 -4.2867 -336.1289 27805.3945)" gradientUnits="userSpaceOnUse">
			<stop  offset="0.4691" style="stop-color:#FDE441"/>
			<stop  offset="0.5898" style="stop-color:#FEE241"/>
			<stop  offset="0.6855" style="stop-color:#FBDA3D"/>
			<stop  offset="0.7726" style="stop-color:#FBCF39"/>
			<stop  offset="0.8546" style="stop-color:#F5BD2E"/>
			<stop  offset="0.9323" style="stop-color:#F3A826"/>
			<stop  offset="1" style="stop-color:#EF9123"/>
		</radialGradient>
		<path class="st2" d="M52.7,21.91c-0.94-9.29-2.84-10.84-7.52-15.2c-6.35-5.91-26.15-5.91-32.49,0C8,11.07,6.1,12.62,5.16,21.91
			c-1.44,14.25,1,36.65,0.94,42.17c-0.32,29.43-0.53,47.34,1.17,53.54c1.97,7.15,21.65,6.76,21.66,6.76c0,0,19.69,0.39,21.65-6.76
			c1.71-6.2,1.5-24.12,1.17-53.55C51.69,58.56,54.14,36.17,52.7,21.91z"/>
		
			<linearGradient id="SVGID_3_" gradientUnits="userSpaceOnUse" x1="347.2079" y1="-91.0083" x2="382.9109" y2="-91.0083" gradientTransform="matrix(1 0 0 -1 -336.1328 -36.3964)">
			<stop  offset="0" style="stop-color:#020202"/>
			<stop  offset="1" style="stop-color:#1B1C1C"/>
		</linearGradient>
		<path class="st3" d="M19.23,52.64c-4.11,0.65-7.06,1.91-8.15,2.44l0.32,2.03c0,0,3.22-1.85,8.25-2.67
			c4.34-0.71,14.22-0.71,18.56,0c5.03,0.83,8.25,2.67,8.25,2.67l0.32-2.03c-1.09-0.52-4.04-1.79-8.15-2.44
			C34.08,51.93,23.77,51.93,19.23,52.64z"/>
		
			<linearGradient id="SVGID_4_" gradientUnits="userSpaceOnUse" x1="344.3879" y1="-71.0165" x2="385.7284" y2="-71.0165" gradientTransform="matrix(1 0 0 -1 -336.1328 -36.3964)">
			<stop  offset="0" style="stop-color:#020202"/>
			<stop  offset="1" style="stop-color:#1B1C1C"/>
		</linearGradient>
		<path class="st4" d="M9.8,37.35c1.6-0.78,4.38-2.06,8.73-3.12c6.24-1.52,14.54-1.52,20.78,0c4.35,1.05,7.13,2.34,8.73,3.12
			c0.7,0.34,1.15,0.62,1.37,0.9l0.01-0.06c0,0,0.3-1.47,0.1-1.87c-0.17-0.34-0.64-0.66-1.49-1.07c-1.6-0.78-4.38-2.06-8.73-3.12
			c-6.24-1.52-14.54-1.52-20.78,0c-4.35,1.06-7.13,2.34-8.73,3.12c-0.84,0.41-1.32,0.73-1.48,1.07c-0.19,0.4,0.1,1.86,0.1,1.86
			l0.01,0.06C8.66,37.97,9.1,37.69,9.8,37.35z"/>
		
			<linearGradient id="SVGID_5_" gradientUnits="userSpaceOnUse" x1="344.5689" y1="-80.4834" x2="385.5498" y2="-80.4834" gradientTransform="matrix(1 0 0 -1 -336.1328 -36.3964)">
			<stop  offset="0" style="stop-color:#383D3B"/>
			<stop  offset="1" style="stop-color:#1B1C1C"/>
		</linearGradient>
		<path class="st5" d="M19.23,52.64c4.54-0.71,14.85-0.71,19.4,0c4.12,0.65,7.06,1.91,8.15,2.44l2.64-16.83
			c-0.22-0.28-0.67-0.56-1.37-0.9c-1.6-0.78-4.38-2.06-8.73-3.12c-6.24-1.52-14.54-1.52-20.78,0c-4.35,1.05-7.13,2.34-8.73,3.12
			c-0.7,0.34-1.14,0.62-1.37,0.9l2.64,16.83C12.17,54.56,15.11,53.29,19.23,52.64z"/>
		
			<linearGradient id="SVGID_6_" gradientUnits="userSpaceOnUse" x1="345.9606" y1="-144.9893" x2="384.1572" y2="-144.9893" gradientTransform="matrix(1 0 0 -1 -336.1328 -36.3964)">
			<stop  offset="0" style="stop-color:#020202"/>
			<stop  offset="1" style="stop-color:#1B1C1C"/>
		</linearGradient>
		<path class="st6" d="M47.14,101.27c-0.15-0.73-0.32-1.46-0.52-2.19c0,0-0.26,0.13-0.77,0.34c-1.9,0.77-7.34,2.57-16.92,2.57
			c-8.77,0-14.85-1.87-16.91-2.61c-0.51-0.19-0.78-0.3-0.78-0.3c-0.19,0.7-0.36,1.41-0.51,2.12C9.31,108.12,10,114.73,10,114.73
			s3.85,1.76,9.36,2.78c4.23,0.79,14.9,0.79,19.13,0c5.51-1.02,9.36-2.78,9.36-2.78S48.54,108.17,47.14,101.27z M46.53,112.97
			c0,0-3.59,1.76-8.71,2.78c-3.94,0.78-13.86,0.78-17.8,0c-5.12-1.03-8.71-2.78-8.71-2.78s-0.52-5.37,0.35-11.51
			c3.23,0.86,9.25,2.09,17.26,2.09c8.6,0,14.25-1.15,17.27-2C47.05,107.65,46.53,112.97,46.53,112.97z"/>
		
			<linearGradient id="SVGID_7_" gradientUnits="userSpaceOnUse" x1="347.2974" y1="-145.2971" x2="382.8207" y2="-145.2971" gradientTransform="matrix(1 0 0 -1 -336.1328 -36.3964)">
			<stop  offset="0" style="stop-color:#383D3B"/>
			<stop  offset="1" style="stop-color:#1B1C1C"/>
		</linearGradient>
		<path class="st7" d="M11.67,101.46c-0.87,6.14-0.35,11.51-0.35,11.51s3.59,1.76,8.71,2.78c3.94,0.78,13.86,0.78,17.8,0
			c5.12-1.03,8.71-2.78,8.71-2.78s0.52-5.32-0.33-11.41c-3.02,0.85-8.67,2-17.27,2C20.91,103.55,14.9,102.33,11.67,101.46z"/>
		<g>
			
				<linearGradient id="SVGID_8_" gradientUnits="userSpaceOnUse" x1="342.9839" y1="-93.0728" x2="347.0248" y2="-93.0728" gradientTransform="matrix(1 0 0 -1 -336.1328 -36.3964)">
				<stop  offset="0" style="stop-color:#383D3B"/>
				<stop  offset="1" style="stop-color:#1B1C1C"/>
			</linearGradient>
			<path class="st8" d="M7.42,74.37l3.48,1.31l-0.6-17.4L6.98,37.67c0,0-0.29,5.29,0,12.87c0.18,4.79,0.7,11.39,0.69,15.65
				C7.66,70.22,7.53,72.96,7.42,74.37z"/>
			
				<linearGradient id="SVGID_9_" gradientUnits="userSpaceOnUse" x1="383.0929" y1="-93.0728" x2="387.1324" y2="-93.0728" gradientTransform="matrix(1 0 0 -1 -336.1328 -36.3964)">
				<stop  offset="0" style="stop-color:#383D3B"/>
				<stop  offset="1" style="stop-color:#1B1C1C"/>
			</linearGradient>
			<path class="st9" d="M50.44,74.37l-3.47,1.31l0.6-17.4l3.31-20.62c0,0,0.29,5.29,0,12.87c-0.18,4.79-0.7,11.39-0.69,15.65
				C50.19,70.22,50.3,73,50.44,74.37z"/>
		</g>
		<g>
			
				<linearGradient id="SVGID_10_" gradientUnits="userSpaceOnUse" x1="343.2715" y1="-125.0622" x2="347.4489" y2="-125.0622" gradientTransform="matrix(1 0 0 -1 -336.1328 -36.3964)">
				<stop  offset="0" style="stop-color:#383D3B"/>
				<stop  offset="1" style="stop-color:#1B1C1C"/>
			</linearGradient>
			<path class="st10" d="M7.31,75.98l3.6,1.68l0.4,14.55c0,0-0.31,1.81-1.66,4.79c-1.53,3.4-2.35,4.35-2.35,4.35
				S6.92,81.43,7.31,75.98z"/>
			
				<linearGradient id="SVGID_11_" gradientUnits="userSpaceOnUse" x1="382.6709" y1="-125.0622" x2="386.845" y2="-125.0622" gradientTransform="matrix(1 0 0 -1 -336.1328 -36.3964)">
				<stop  offset="0" style="stop-color:#383D3B"/>
				<stop  offset="1" style="stop-color:#1B1C1C"/>
			</linearGradient>
			<path class="st11" d="M50.54,75.98l-3.6,1.68l-0.4,14.55c0,0,0.31,1.81,1.65,4.79c1.53,3.4,2.35,4.35,2.35,4.35
				S50.93,81.43,50.54,75.98z"/>
		</g>
		
			<radialGradient id="SVGID_12_" cx="12.629" cy="4.3823" r="3.2786" gradientTransform="matrix(1 0 0 -1 0 129.2891)" gradientUnits="userSpaceOnUse">
			<stop  offset="0" style="stop-color:#EF6438"/>
			<stop  offset="0.2111" style="stop-color:#D04E2E"/>
			<stop  offset="0.4867" style="stop-color:#B63B27"/>
			<stop  offset="0.7537" style="stop-color:#A83224"/>
			<stop  offset="1" style="stop-color:#A32D23"/>
		</radialGradient>
		<path class="st12" d="M14.72,124.39c-2.34,0.44-3.38-1.1-5.49-1.1c-0.38,0-0.69,0.08-0.94,0.22c2.15,1.51,5.4,2.45,8.69,3.03
			C16.79,125.52,16.27,124.09,14.72,124.39z"/>
		
			<radialGradient id="SVGID_13_" cx="44.409" cy="4.2943" r="3.4686" gradientTransform="matrix(1 0 0 -1 0 129.2891)" gradientUnits="userSpaceOnUse">
			<stop  offset="0" style="stop-color:#EF6438"/>
			<stop  offset="0.2111" style="stop-color:#D04E2E"/>
			<stop  offset="0.4867" style="stop-color:#B63B27"/>
			<stop  offset="0.7537" style="stop-color:#A83224"/>
			<stop  offset="1" style="stop-color:#A32D23"/>
		</radialGradient>
		<path class="st13" d="M42.09,124.39c-1.64-0.31-2.13,1.31-2.28,2.32c3.36-0.52,6.81-1.38,9.2-2.84c-0.31-0.34-0.76-0.58-1.42-0.58
			C45.47,123.29,44.43,124.83,42.09,124.39z"/>
		
			<linearGradient id="SVGID_14_" gradientUnits="userSpaceOnUse" x1="382.5385" y1="-70.0373" x2="374.7464" y2="-39.0907" gradientTransform="matrix(1 0 0 -1 -336.1328 -36.3964)">
			<stop  offset="0" style="stop-color:#FFFFFF"/>
			<stop  offset="1" style="stop-color:#DCDBDB"/>
		</linearGradient>
		<path class="st14" d="M45.49,36.84c0,0-4.02-12.81-4.57-17.57C40.5,15.62,41.16,4.4,41.16,4.4s0.44,10.7,0.86,14.18
			C42.61,23.29,45.49,36.84,45.49,36.84z"/>
		
			<linearGradient id="SVGID_15_" gradientUnits="userSpaceOnUse" x1="3919.0215" y1="-70.0374" x2="3911.2292" y2="-39.0909" gradientTransform="matrix(-1 0 0 -1 3931.041 -36.3964)">
			<stop  offset="0" style="stop-color:#FFFFFF"/>
			<stop  offset="1" style="stop-color:#DCDBDB"/>
		</linearGradient>
		<path class="st15" d="M12.94,36.84c0,0,4.02-12.81,4.57-17.57c0.42-3.64-0.24-14.87-0.24-14.87s-0.44,10.7-0.86,14.18
			C15.82,23.29,12.94,36.84,12.94,36.84z"/>
		
			<linearGradient id="SVGID_16_" gradientUnits="userSpaceOnUse" x1="364.5794" y1="-76.2039" x2="376.6093" y2="-84.7579" gradientTransform="matrix(1 0 0 -1 -336.1328 -36.3964)">
			<stop  offset="0" style="stop-color:#383D3B"/>
			<stop  offset="1" style="stop-color:#020202"/>
		</linearGradient>
		<path class="st16" d="M48.05,37.35c-1.6-0.78-4.38-2.06-8.73-3.12c-1.52-0.37-3.17-0.65-4.88-0.84
			c-4.39,5.28-9.58,14.85-11.71,18.9c5.1-0.33,12.3-0.21,15.89,0.35c4.12,0.65,7.06,1.91,8.15,2.44l2.64-16.83
			C49.19,37.97,48.75,37.69,48.05,37.35z"/>
		
			<linearGradient id="SVGID_17_" gradientUnits="userSpaceOnUse" x1="348.0548" y1="-113.766" x2="382.0588" y2="-113.766" gradientTransform="matrix(1 0 0 -1 -336.1328 -36.3964)">
			<stop  offset="0" style="stop-color:#FDE441"/>
			<stop  offset="0.2273" style="stop-color:#FEE241"/>
			<stop  offset="0.4076" style="stop-color:#FBDA3D"/>
			<stop  offset="0.5717" style="stop-color:#FBCF39"/>
			<stop  offset="0.7261" style="stop-color:#F5BD2E"/>
			<stop  offset="0.8725" style="stop-color:#F3A826"/>
			<stop  offset="1" style="stop-color:#EF9123"/>
		</linearGradient>
		<path class="st17" d="M28.93,55.08c-12.73-0.32-17,2.96-17,2.96s0.16,34.45,1.13,37.88c0.66,2.32,8.68,3.35,13.77,3.77l4.21,0
			c5.09-0.42,13.11-1.45,13.77-3.77c0.97-3.42,1.13-37.87,1.13-37.87S41.66,54.76,28.93,55.08z"/>
		
			<linearGradient id="SVGID_18_" gradientUnits="userSpaceOnUse" x1="337.1486" y1="-30.3373" x2="349.5489" y2="-66.0446" gradientTransform="matrix(1 0 0 -1 -336.1328 -36.3964)">
			<stop  offset="0" style="stop-color:#F7F8F8"/>
			<stop  offset="1" style="stop-color:#DCDBDB"/>
		</linearGradient>
		<path class="st18" d="M14.76,5.93c0,0-7.66,4.32-8.48,13.93c-0.83,9.82-0.71,14.76-0.71,14.76S8.19,11.14,14.76,5.93z"/>
		
			<linearGradient id="SVGID_19_" gradientUnits="userSpaceOnUse" x1="3114.0664" y1="-30.3388" x2="3126.4663" y2="-66.0446" gradientTransform="matrix(-1 0 0 -1 3170.9443 -36.396)">
			<stop  offset="0" style="stop-color:#F7F8F8"/>
			<stop  offset="1" style="stop-color:#DCDBDB"/>
		</linearGradient>
		<path class="st19" d="M43.14,5.93c0,0,7.66,4.32,8.48,13.93c0.83,9.82,0.71,14.76,0.71,14.76S49.7,11.14,43.14,5.93z"/>
		<g>
			
				<linearGradient id="SVGID_20_" gradientUnits="userSpaceOnUse" x1="386.2581" y1="-76.1662" x2="391.1609" y2="-85.659" gradientTransform="matrix(1 0 0 -1 -336.1328 -36.3964)">
				<stop  offset="0" style="stop-color:#383D3B"/>
				<stop  offset="1" style="stop-color:#1B1C1C"/>
			</linearGradient>
			<path class="st20" d="M50.73,38.95c0,0,1.99,0.44,2.03,2.34c0.04,1.9-1.99,5.76-2.03,3.32C50.68,42.17,50.55,39.68,50.73,38.95z"
				/>
			<path class="st0" d="M57.64,43.12c-0.44-0.66-4.44-2.05-4.44-2.05c-0.79-0.29-1.06,0.49-1.15,1.16l5.74,1.95
				C57.86,43.88,57.88,43.48,57.64,43.12z"/>
			
				<linearGradient id="SVGID_21_" gradientUnits="userSpaceOnUse" x1="388.1364" y1="-79.8142" x2="393.9667" y2="-79.8142" gradientTransform="matrix(1 0 0 -1 -336.1328 -36.3964)">
				<stop  offset="0" style="stop-color:#383D3B"/>
				<stop  offset="1" style="stop-color:#1B1C1C"/>
			</linearGradient>
			<path class="st21" d="M52.05,42.23c-0.06,0.43-0.04,0.81-0.04,0.81l5.64,1.57c0,0,0.09-0.18,0.15-0.43L52.05,42.23z"/>
		</g>
		<g>
			
				<linearGradient id="SVGID_22_" gradientUnits="userSpaceOnUse" x1="342.1606" y1="-76.9585" x2="346.4376" y2="-86.3469" gradientTransform="matrix(1 0 0 -1 -336.1328 -36.3964)">
				<stop  offset="0" style="stop-color:#383D3B"/>
				<stop  offset="1" style="stop-color:#1B1C1C"/>
			</linearGradient>
			<path class="st22" d="M7.1,38.82c0,0-2.11,0.44-2.16,2.34c-0.05,1.9,2.11,5.76,2.16,3.32S7.29,39.55,7.1,38.82z"/>
			<path class="st0" d="M4.63,40.94c0,0-4,1.39-4.44,2.05c-0.26,0.4-0.21,0.85-0.12,1.15l5.73-1.96C5.71,41.5,5.45,40.64,4.63,40.94
				z"/>
			
				<linearGradient id="SVGID_23_" gradientUnits="userSpaceOnUse" x1="336.1323" y1="-79.7212" x2="341.9631" y2="-79.7212" gradientTransform="matrix(1 0 0 -1 -336.1328 -36.3964)">
				<stop  offset="0" style="stop-color:#383D3B"/>
				<stop  offset="1" style="stop-color:#1B1C1C"/>
			</linearGradient>
			<path class="st23" d="M0.07,44.13c0.06,0.21,0.12,0.34,0.12,0.34l5.64-1.57c0,0,0.01-0.34-0.03-0.74L0.07,44.13z"/>
		</g>
		<path class="st24" d="M4.7,63.92c-0.29,0-0.53,0.26-0.53,0.59v4.9C4.17,69.73,4.41,70,4.7,70V63.92z"/>
		<path class="st24" d="M4.44,88.4c-0.29,0-0.53,0.27-0.53,0.59v4.89c0,0.33,0.24,0.59,0.53,0.59L4.44,88.4z"/>
		<path class="st24" d="M53.15,63.92c0.29,0,0.53,0.27,0.53,0.59v4.9c0,0.32-0.24,0.59-0.53,0.59V63.92z"/>
		<path class="st24" d="M53.42,88.4c0.29,0,0.53,0.27,0.53,0.59v4.89c0,0.33-0.24,0.59-0.53,0.59V88.4z"/>
		<g>
			<g>
				<g>
					<path class="st25" d="M17.42,29.22c0.85-0.08,1.28-0.61,2.13-0.69c0.07-0.01,0.13-0.07,0.13-0.15c0-0.08-0.06-0.14-0.13-0.14
						c-0.85,0.08-1.28,0.61-2.13,0.69c-0.07,0.01-0.13,0.07-0.13,0.15C17.29,29.16,17.35,29.22,17.42,29.22z"/>
					<path class="st25" d="M19.54,28.81c-0.85,0.07-1.27,0.61-2.13,0.69c-0.07,0.01-0.13,0.07-0.13,0.15c0,0.08,0.05,0.14,0.13,0.14
						c0.85-0.07,1.27-0.61,2.13-0.69c0.07-0.01,0.13-0.07,0.13-0.15C19.67,28.87,19.61,28.8,19.54,28.81z"/>
					<path class="st25" d="M19.54,29.37c-0.85,0.07-1.28,0.61-2.13,0.69c-0.07,0.01-0.13,0.07-0.13,0.15c0,0.08,0.05,0.14,0.13,0.14
						c0.85-0.08,1.27-0.61,2.13-0.69c0.07-0.01,0.13-0.07,0.13-0.15C19.67,29.42,19.61,29.36,19.54,29.37z"/>
				</g>
			</g>
			<g>
				<g>
					<path class="st25" d="M40.42,29.22c-0.85-0.08-1.28-0.61-2.13-0.69c-0.07-0.01-0.13-0.07-0.13-0.15c0-0.08,0.06-0.14,0.13-0.14
						c0.85,0.08,1.27,0.61,2.13,0.69c0.07,0.01,0.13,0.07,0.12,0.15C40.54,29.16,40.49,29.22,40.42,29.22z"/>
					<path class="st25" d="M38.29,28.81c0.85,0.07,1.27,0.61,2.12,0.69c0.07,0.01,0.12,0.07,0.12,0.15c0,0.08-0.05,0.14-0.12,0.14
						c-0.85-0.07-1.27-0.61-2.12-0.69c-0.07-0.01-0.13-0.06-0.13-0.15C38.16,28.87,38.22,28.8,38.29,28.81z"/>
					<path class="st25" d="M38.29,29.37c0.85,0.07,1.27,0.61,2.12,0.69c0.07,0.01,0.12,0.07,0.12,0.15c0,0.08-0.05,0.14-0.12,0.14
						c-0.85-0.08-1.28-0.61-2.13-0.69c-0.07-0.01-0.13-0.07-0.13-0.15C38.16,29.42,38.22,29.36,38.29,29.37z"/>
				</g>
			</g>
		</g>
		
			<linearGradient id="SVGID_24_" gradientUnits="userSpaceOnUse" x1="357.2108" y1="-163.3902" x2="372.8888" y2="-163.3902" gradientTransform="matrix(1 0 0 -1 -336.1328 -36.3964)">
			<stop  offset="0" style="stop-color:#383D3B"/>
			<stop  offset="1" style="stop-color:#1B1C1C"/>
		</linearGradient>
		<path class="st26" d="M35.79,126.53H22.05c-0.4,0-0.75,0.22-0.97,0.56c4.31,0.44,7.85,0.37,7.85,0.37c0,0,3.53,0.07,7.83-0.36
			C36.54,126.75,36.19,126.53,35.79,126.53z"/>
		
			<linearGradient id="SVGID_25_" gradientUnits="userSpaceOnUse" x1="356.3419" y1="-128.248" x2="365.7546" y2="-142.6818" gradientTransform="matrix(1 0 0 -1 -336.1328 -36.3964)">
			<stop  offset="0" style="stop-color:#383D3B"/>
			<stop  offset="1" style="stop-color:#020202"/>
		</linearGradient>
		<path class="st27" d="M46.2,101.56c-3.02,0.85-8.67,2-17.27,2c-1.76,0-3.41-0.06-4.97-0.16c-4.93,2.25-7.93,9.32-8.62,11.13
			c1.32,0.43,2.91,0.87,4.7,1.23c3.94,0.78,13.86,0.78,17.8,0c5.12-1.03,8.71-2.78,8.71-2.78S47.05,107.65,46.2,101.56z"/>
		<g>
			
				<linearGradient id="SVGID_26_" gradientUnits="userSpaceOnUse" x1="3690.8931" y1="33.7925" x2="3700.543" y2="33.7925" gradientTransform="matrix(-0.9987 -0.0502 0.0502 -0.9987 3700.2109 226.368)">
				<stop  offset="0" style="stop-color:#9B9C9C"/>
				<stop  offset="1" style="stop-color:#5B5E5E"/>
			</linearGradient>
			<path class="st28" d="M5.94,11.48c0.72-1.27,1.54-2.44,2.48-3.49c2.26-2.54,4.96-4.21,7.62-5.29
				C15.56,4.99,13.56,8.84,5.94,11.48z"/>
			
				<linearGradient id="SVGID_27_" gradientUnits="userSpaceOnUse" x1="3691.3879" y1="33.8361" x2="3699.75" y2="33.8361" gradientTransform="matrix(-0.9987 -0.0502 0.0502 -0.9987 3700.2109 226.368)">
				<stop  offset="0" style="stop-color:#FFFFFF"/>
				<stop  offset="1" style="stop-color:#878787"/>
			</linearGradient>
			<path class="st29" d="M6.77,10.78c6.05-2.32,8.08-5.42,8.75-7.45c-2.71,1.19-5.01,2.85-6.85,4.92C7.99,9.02,7.35,9.87,6.77,10.78
				z"/>
		</g>
		<g>
			
				<linearGradient id="SVGID_28_" gradientUnits="userSpaceOnUse" x1="158.127" y1="211.3683" x2="167.7749" y2="211.3683" gradientTransform="matrix(0.9987 -0.0502 -0.0502 -0.9987 -105.1738 226.368)">
				<stop  offset="0" style="stop-color:#9B9C9C"/>
				<stop  offset="1" style="stop-color:#5B5E5E"/>
			</linearGradient>
			<path class="st30" d="M52.01,11.48c-0.72-1.27-1.54-2.44-2.48-3.49c-2.26-2.54-4.96-4.21-7.62-5.29
				C42.39,4.99,44.38,8.84,52.01,11.48z"/>
			
				<linearGradient id="SVGID_29_" gradientUnits="userSpaceOnUse" x1="158.6189" y1="211.4119" x2="166.982" y2="211.4119" gradientTransform="matrix(0.9987 -0.0502 -0.0502 -0.9987 -105.1738 226.368)">
				<stop  offset="0" style="stop-color:#FFFFFF"/>
				<stop  offset="1" style="stop-color:#878787"/>
			</linearGradient>
			<path class="st31" d="M51.18,10.78c-6.05-2.32-8.08-5.42-8.75-7.45c2.7,1.19,5.01,2.85,6.85,4.92
				C49.96,9.02,50.59,9.87,51.18,10.78z"/>
		</g>
		
			<radialGradient id="SVGID_30_" cx="32.521" cy="49.9069" r="10.1839" gradientTransform="matrix(1 0 0 -1 0 129.2891)" gradientUnits="userSpaceOnUse">
			<stop  offset="0" style="stop-color:#F7F8F8"/>
			<stop  offset="1" style="stop-color:#DCDBDB"/>
		</radialGradient>
		<path class="st32" d="M34.05,93.7v-1.34c0,0.4-0.11,0.78-0.3,1.1L34.05,93.7z"/>
		
			<radialGradient id="SVGID_31_" cx="3569.1035" cy="49.902" r="10.1785" gradientTransform="matrix(-1 0 0 -1 3594.4121 129.2891)" gradientUnits="userSpaceOnUse">
			<stop  offset="0" style="stop-color:#F7F8F8"/>
			<stop  offset="1" style="stop-color:#DCDBDB"/>
		</radialGradient>
		<path class="st33" d="M23.8,93.7l0.29-0.23c-0.18-0.33-0.29-0.7-0.29-1.1V93.7z"/>
	</g>
</g>
</svg>
