<?xml version="1.0" encoding="utf-8"?>
<!-- Generator: Adobe Illustrator 24.0.1, SVG Export Plug-In . SVG Version: 6.00 Build 0)  -->
<svg version="1.1" id="Layer_1" xmlns="http://www.w3.org/2000/svg" xmlns:xlink="http://www.w3.org/1999/xlink" x="0px" y="0px"
	 viewBox="0 0 24 24" style="enable-background:new 0 0 24 24;" xml:space="preserve">
<style type="text/css">
	.st0{fill:#FEDD00;}
	.st1{fill:#D88227;}
	.st2{fill:#EFAB1F;}
	.st3{fill:#E99E25;}
</style>
<g>
	<g>
		<circle class="st0" cx="12" cy="12" r="11.36"/>
		<circle class="st1" cx="11.82" cy="11.82" r="8.63"/>
		<circle class="st2" cx="12.18" cy="12.18" r="8.52"/>
		<g>
			<g id="XMLID_11_">
				<path id="XMLID_553_" class="st3" d="M15.85,7.33h-2.78c0.49,0.43,0.84,1.04,0.94,1.89h1.83v0.93h-1.82
					c-0.17,1.89-1.53,3.1-3.68,3.18c1.31,1.5,2.74,3.4,4.15,5.31h-1.61c-1.31-1.75-2.54-3.36-4.12-5.22v-1.15h0.92
					c1.82,0,2.79-0.84,2.91-2.12H8.77V9.23h3.78c-0.24-1.08-1.13-1.62-2.59-1.62H8.77V6.4h7.08L15.85,7.33L15.85,7.33z"/>
			</g>
			<g id="XMLID_4_">
				<path id="XMLID_5_" class="st0" d="M15.61,7.1h-2.78c0.49,0.43,0.84,1.04,0.94,1.89h1.83v0.93H13.8
					c-0.17,1.89-1.53,3.1-3.68,3.18c1.31,1.5,2.74,3.4,4.15,5.31h-1.61c-1.31-1.75-2.54-3.36-4.12-5.22v-1.15h0.93
					c1.82,0,2.79-0.84,2.91-2.12H8.53V8.99h3.78c-0.24-1.08-1.13-1.62-2.59-1.62H8.53V6.17h7.08L15.61,7.1L15.61,7.1z"/>
			</g>
		</g>
	</g>
</g>
</svg>
