<?xml version="1.0" encoding="utf-8"?>
<!-- Generator: Adobe Illustrator 24.0.1, SVG Export Plug-In . SVG Version: 6.00 Build 0)  -->
<svg version="1.1" id="Layer_1" xmlns="http://www.w3.org/2000/svg" xmlns:xlink="http://www.w3.org/1999/xlink" x="0px" y="0px"
	 viewBox="0 0 203.43 289.09" style="enable-background:new 0 0 203.43 289.09;" xml:space="preserve">
<style type="text/css">
	.st0{fill:#3F2912;}
	.st1{fill:#F8DC4F;}
	.st2{fill:#124678;}
	.st3{fill:#0865B0;}
</style>
<g>
	<g>
		<path class="st0" d="M185.98,269.53H17.51c-9.65,0-17.48-7.83-17.48-17.48V40.86c0-9.65,7.83-17.48,17.48-17.48h168.47
			c9.65,0,17.48,7.83,17.48,17.48v211.19C203.46,261.7,195.63,269.53,185.98,269.53z"/>
		<path class="st1" d="M17.51,260.44c-4.63,0-8.4-3.77-8.4-8.4V40.86c0-4.63,3.77-8.4,8.4-8.4h168.47c4.63,0,8.4,3.77,8.4,8.4
			v211.19c0,4.63-3.77,8.4-8.4,8.4L17.51,260.44L17.51,260.44z"/>
		<g>
			<g>
				<path class="st2" d="M12.49,258.38L25,282.91c0.68,1.33,2.05,2.17,3.54,2.17h8.06c2.82,0,4.74-2.85,3.68-5.47L29.34,252.6H16.03
					C13.06,252.6,11.14,255.74,12.49,258.38z"/>
				<path class="st2" d="M191,258.38l-12.51,24.53c-0.68,1.33-2.05,2.17-3.54,2.17h-8.06c-2.82,0-4.74-2.85-3.68-5.47l10.95-27.01
					h13.31C190.43,252.6,192.35,255.74,191,258.38z"/>
				<path class="st3" d="M28.16,249.69l10.95,27.01h63.36v-32.48H31.84C29.02,244.22,27.1,247.07,28.16,249.69z"/>
				<path class="st3" d="M175.33,249.69l-10.95,27.01h-63.36v-32.48h70.63C174.47,244.22,176.39,247.07,175.33,249.69z"/>
			</g>
		</g>
	</g>
</g>
<g>
	<g>
		<g>
			<path class="st2" d="M39.17,23.05l10.67,17.77c0.58,0.96,1.74,1.57,3.01,1.57h6.88c2.4,0,4.04-2.06,3.14-3.95l-9.34-19.56H42.18
				C39.65,18.87,38.02,21.13,39.17,23.05z"/>
			<path class="st2" d="M164.38,23.05l-9.07,17.77c-0.49,0.96-1.48,1.57-2.56,1.57h-5.85c-2.04,0-3.43-2.06-2.66-3.95l7.93-19.56
				h9.64C163.97,18.87,165.35,21.13,164.38,23.05z"/>
			<path class="st3" d="M152.37,6h-50.1h-1.05h-50.1c-2.04,0-3.43,2.66-2.66,5.09l7.93,25.22h44.84h1.05h44.83l7.93-25.22
				C155.8,8.66,154.41,6,152.37,6z"/>
		</g>
	</g>
</g>
</svg>
