<?xml version="1.0" encoding="utf-8"?>
<!-- Generator: Adobe Illustrator 24.0.1, SVG Export Plug-In . SVG Version: 6.00 Build 0)  -->
<svg version="1.1" id="Layer_1" xmlns="http://www.w3.org/2000/svg" xmlns:xlink="http://www.w3.org/1999/xlink" x="0px" y="0px"
	 viewBox="0 0 135.82 36.7" style="enable-background:new 0 0 135.82 36.7;" xml:space="preserve">
<style type="text/css">
	.st0{fill:#124678;}
	.st1{fill:#0865B0;}
</style>
<g>
	<g>
		<g>
			<path class="st0" d="M5.12,17.05l10.67,17.77c0.58,0.96,1.74,1.57,3.01,1.57h6.88c2.4,0,4.04-2.06,3.14-3.95l-9.34-19.56H8.13
				C5.6,12.87,3.97,15.13,5.12,17.05z"/>
			<path class="st0" d="M130.33,17.05l-9.07,17.77c-0.49,0.96-1.48,1.57-2.56,1.57h-5.85c-2.04,0-3.43-2.06-2.66-3.95l7.93-19.56
				h9.64C129.92,12.87,131.3,15.13,130.33,17.05z"/>
			<path class="st1" d="M118.32,0h-50.1h-1.05h-50.1c-2.04,0-3.43,2.66-2.66,5.09l7.93,25.22h44.84h1.05h44.83l7.93-25.22
				C121.75,2.66,120.36,0,118.32,0z"/>
		</g>
	</g>
</g>
</svg>
