<?xml version="1.0" encoding="utf-8"?>
<!-- Generator: Adobe Illustrator 23.0.0, SVG Export Plug-In . SVG Version: 6.00 Build 0)  -->
<svg version="1.1" id="Layer_1" xmlns="http://www.w3.org/2000/svg" xmlns:xlink="http://www.w3.org/1999/xlink" x="0px" y="0px"
	 viewBox="0 0 150 60" style="enable-background:new 0 0 150 60;" xml:space="preserve">
<style type="text/css">
	.st0{fill:#214C2C;}
	.st1{fill:#419757;}
	.st2{fill:#B9D546;}
	.st3{enable-background:new    ;}
	.st4{fill:#FAFCFB;}
	.st5{opacity:0.4;fill:#FAFCFB;enable-background:new    ;}
</style>
<image style="overflow:visible;opacity:0.2;enable-background:new    ;" width="162" height="71" xlink:href="DDA29CA7.png"  transform="matrix(1 0 0 1 -4 -4)">
</image>
<path class="st0" d="M147.5,44.9c0,7.3-6,13-13.4,13h-121C5.8,57.9,0,52.2,0,44.9V15C0,7.7,5.8,1.9,13.1,1.9h121
	c7.3,0,13.4,5.9,13.4,13.2V44.9z"/>
<path class="st1" d="M150,42.8c0,7.3-6,13.2-13.3,13.2H15.8C8.5,56,2.5,50.1,2.5,42.8V13.2C2.5,5.9,8.5,0,15.8,0h120.9
	C144,0,150,5.9,150,13.2V42.8z"/>
<path class="st2" d="M143.8,42.2c0,4.2-3.4,7.6-7.6,7.6H15.7c-4.2,0-7.6-3.4-7.6-7.6V12.5c0-4.2,3.4-7.6,7.6-7.6h120.4
	c4.2,0,7.6,3.4,7.6,7.6L143.8,42.2L143.8,42.2z"/>
<g class="st3">
	<path class="st4" d="M23.7,34.7c0.4-0.1,0.8-0.1,1.3-0.1c0.4,0,0.8,0.1,1.2,0.2c0.4,0.1,0.7,0.3,1,0.5c1.7,1,3.2,1.7,4.5,2
		c1.3,0.3,2.2,0.2,2.8-0.2c0.2-0.1,0.3-0.3,0.1-0.6c-0.1-0.2-0.4-0.5-0.8-0.8s-0.9-0.6-1.4-1c-0.6-0.4-1.2-0.7-1.8-1.1
		c-0.6-0.4-1.3-0.8-1.9-1.2c-0.6-0.4-1.2-0.8-1.7-1.3c-0.6-0.5-1.1-1-1.5-1.5c-0.4-0.6-0.8-1.2-1-1.8c-0.2-0.7-0.4-1.4-0.4-2.1
		c0-0.8,0.1-1.5,0.4-2.4c0.2-0.7,0.5-1.4,0.9-2.2s1-1.6,1.6-2.3c0.6-0.8,1.3-1.5,2-2.1c0.7-0.7,1.5-1.2,2.2-1.7
		c0.3-0.2,0.6-0.4,1-0.5c0.4-0.2,0.8-0.3,1.3-0.4c0.5-0.1,1-0.1,1.6-0.1c0.6,0,1.2,0.1,1.8,0.3c0.9,0.3,1.9,0.7,2.8,1.2
		c0.9,0.5,1.7,1,2.3,1.6c0.4,0.4,0.7,0.7,0.9,1.1c0.2,0.4,0.4,0.8,0.5,1.1c0.1,0.4,0.1,0.7,0.2,1.1c0,0.3,0,0.7,0,1
		c-0.1,0.6-0.2,1.2-0.3,1.8c-0.1,0.7-0.3,1.3-0.5,2c-0.2,0.7-0.4,1.3-0.6,1.9c-0.2,0.6-0.5,1.1-0.7,1.6c-0.2,0.4-0.5,0.7-0.7,0.8
		c-0.3,0.1-0.6,0.1-1.1-0.1c-2.8-1-4.1-2.3-3.9-4c0-0.3,0.1-0.8,0.2-1.2c0.1-0.5,0.2-0.9,0.3-1.4c0.1-0.5,0.2-0.9,0.3-1.3
		c0.1-0.4,0.1-0.8,0.1-1c0-0.3-0.1-0.4-0.3-0.5s-0.4,0.1-0.8,0.3c-0.3,0.2-0.7,0.5-1.1,0.8c-0.4,0.4-0.8,0.8-1.2,1.3
		c-0.4,0.5-0.7,1-1,1.5c-0.3,0.6-0.5,1.1-0.6,1.7c-0.1,0.6-0.1,1.1,0,1.6c0.1,0.5,0.4,1,0.9,1.4c0.6,0.6,1.3,1.1,2,1.6
		c0.7,0.5,1.5,1,2.2,1.4c0.7,0.5,1.4,0.9,2.1,1.4c0.6,0.5,1.2,0.9,1.6,1.4c0.4,0.5,0.7,1,0.8,1.5c0.1,0.5,0,1.1-0.3,1.7
		c-0.2,0.4-0.5,0.9-0.9,1.4c-0.4,0.5-0.9,0.9-1.5,1.4c-0.6,0.4-1.4,0.8-2.3,1.1s-1.9,0.4-3.2,0.5c-1.6,0-3.3-0.3-4.8-0.9
		s-3.2-1.7-4.9-3.2c-0.9-0.8-1.3-1.3-1.4-1.7c0-0.4,0.2-0.7,0.6-0.9C22.8,34.9,23.2,34.8,23.7,34.7z"/>
	<path class="st4" d="M60.8,19.8c-0.9,0.1-1.9,0.2-2.9,0.3c-0.4,1.7-0.9,3.5-1.3,5.4s-0.9,3.7-1.3,5.5c-0.4,1.8-0.8,3.6-1.2,5.3
		c-0.4,1.7-0.7,3.3-1,4.8c0,0.3-0.1,0.5-0.3,0.6c-0.2,0.1-0.4,0.1-0.6,0.1c-0.3,0-0.6-0.1-0.9-0.2c-0.4-0.1-0.7-0.2-1.2-0.3
		c-0.4-0.1-0.8-0.3-1.2-0.4c-0.4-0.1-0.6-0.3-0.9-0.5c-0.2-0.2-0.4-0.4-0.5-0.7s-0.1-0.6,0-1c0.1-1,0.2-2.2,0.4-3.6
		c0.2-1.4,0.4-3,0.7-4.6c0.3-1.6,0.5-3.2,0.8-4.8c0.3-1.6,0.6-3.1,0.9-4.5c-0.6,0.1-1.2,0.2-1.7,0.3c-0.6,0.1-1,0.2-1.4,0.3
		c-0.5,0.1-0.9,0.1-1.3,0s-0.7-0.4-1.1-0.8c-0.4-0.4-0.8-1-1.2-1.6c-0.4-0.7-0.7-1.2-0.9-1.7c-0.2-0.5-0.3-0.8-0.2-0.9
		c0.1-0.2,0.4-0.3,0.8-0.4c1.2-0.2,2.6-0.5,4.1-0.7c1.5-0.2,3.1-0.4,4.7-0.6c1.6-0.2,3.2-0.3,4.7-0.4c1.5-0.1,2.9-0.2,4.1-0.2
		c0.6,0,1.1,0.1,1.4,0.2c0.3,0.1,0.5,0.3,0.7,0.6c0.4,0.5,0.8,1,1,1.5c0.3,0.6,0.5,1.1,0.6,1.6c0.1,0.5,0.1,0.8,0,1
		c-0.1,0.2-0.5,0.3-1.1,0.3C62.7,19.6,61.8,19.7,60.8,19.8z"/>
	<path class="st4" d="M72.4,36c-1.5,0.2-2.9,0.5-4.1,0.8c-0.4,0.8-0.8,1.5-1.1,2.2c-0.3,0.7-0.6,1.4-0.9,2c-0.2,0.3-0.4,0.6-0.6,0.6
		c-0.2,0.1-0.6,0-1.1-0.2c-0.3-0.1-0.6-0.2-0.9-0.4c-0.3-0.1-0.6-0.3-1-0.4c-0.2-0.2-0.5-0.3-0.6-0.4c-0.2-0.1-0.3-0.3-0.4-0.4
		s-0.2-0.4-0.2-0.6c0-0.3,0-0.6,0.2-1c0.5-1.4,1.1-3.1,1.9-5s1.6-3.9,2.6-5.9s1.9-4,2.8-6c1-2,1.9-3.7,2.7-5.3
		c0.3-0.6,0.7-1,1.2-1.4c0.5-0.3,1.2-0.5,2.2-0.4c0.8,0,1.6,0.1,2.3,0.2s1.3,0.2,1.8,0.3c0.5,0.1,1.1,0.3,1.5,0.4
		c0.5,0.1,0.9,0.3,1.4,0.4c0.6,0.2,1,0.5,1.2,0.9c0.2,0.4,0.2,0.9,0.2,1.4c-0.1,1.5-0.2,3.1-0.3,5c-0.1,1.9-0.1,3.9-0.2,5.9
		c0,2.1-0.1,4.1-0.1,6.2c0,2.1,0,4,0,5.7c0,0.4-0.1,0.6-0.2,0.8c-0.2,0.1-0.5,0.2-1,0.2c-0.5,0-1,0-1.5,0c-0.5,0-0.9-0.1-1.4-0.3
		c-0.5-0.1-0.8-0.3-1-0.6c-0.2-0.2-0.3-0.6-0.4-1.2c-0.1-0.6-0.2-1.2-0.2-2c-0.1-0.7-0.1-1.5-0.2-2.3C75.5,35.5,73.9,35.8,72.4,36z
		 M73.9,30.7c0.9-0.1,1.9-0.2,2.8-0.2c0-1.7-0.1-3.4-0.1-5c0-1.7,0-3.3,0-5c-0.8,1.5-1.7,3.2-2.7,5c-1,1.8-1.9,3.7-2.9,5.6
		C72.1,30.9,73,30.8,73.9,30.7z"/>
	<path class="st4" d="M91.1,37.6c-0.2,1.1-0.5,2.3-0.7,3.4c-0.1,0.3-0.2,0.5-0.4,0.6s-0.5,0.1-1,0c-0.6-0.1-1.1-0.3-1.5-0.3
		s-0.8-0.2-1.2-0.4c-0.4-0.2-0.7-0.5-0.8-0.8c-0.1-0.3-0.2-0.7-0.2-1.3c0-0.4,0.1-1.1,0.2-1.9c0.1-0.8,0.2-1.7,0.3-2.8
		c0.1-1,0.2-2.1,0.4-3.3c0.1-1.2,0.3-2.4,0.4-3.6s0.3-2.3,0.5-3.5c0.2-1.1,0.4-2.1,0.6-3c0.2-0.9,0.4-1.6,0.7-2.2
		c0.2-0.6,0.5-0.9,0.8-1.1c1.3-0.6,2.6-1.1,4-1.7c1.4-0.6,2.8-0.9,4.1-1.2c1.3-0.2,2.6-0.3,3.8-0.1c1.2,0.2,2.3,0.7,3.2,1.6
		c0.7,0.8,1.4,1.6,2,2.5c0.6,0.9,1,2,1.4,3.3c0.3,1.4,0.2,2.5-0.3,3.4c-0.7,1.4-1.9,2.7-3.6,3.9c-1.7,1.2-3.6,2.3-6,3.3
		c0.5,0.5,1,1.1,1.6,1.7c0.6,0.6,1.1,1.2,1.7,1.8c0.6,0.6,1.2,1.2,1.8,1.7c0.6,0.6,1.1,1,1.7,1.4c0.4,0.3,0.6,0.6,0.6,0.8
		s-0.2,0.4-0.5,0.6c-0.4,0.3-0.7,0.5-0.9,0.5c-0.3,0.1-0.6,0.1-0.9,0.2c-0.5,0.1-1,0.2-1.5,0.1c-0.5-0.1-1.2-0.3-1.9-0.7
		c-0.5-0.3-1-0.7-1.6-1.2c-0.6-0.5-1.3-1-1.9-1.6c-0.7-0.6-1.3-1.2-2-1.9c-0.7-0.6-1.3-1.3-1.8-2C91.6,35.2,91.4,36.4,91.1,37.6z
		 M94.3,24.8c-0.3,1.2-0.7,2.5-1.1,3.8c1.4-0.5,2.7-1.1,3.8-1.7s2-1.4,2.8-2.1c0.7-0.7,1.3-1.4,1.6-2c0.3-0.6,0.4-1.1,0.3-1.5
		c-0.2-0.6-1-0.9-2.2-0.9c-0.6,0-1.3,0.1-2,0.2s-1.5,0.4-2.3,0.8C94.9,22.5,94.6,23.6,94.3,24.8z"/>
	<path class="st4" d="M126,19.8c-0.9,0.1-1.9,0.2-2.9,0.3c-0.4,1.7-0.9,3.5-1.3,5.4c-0.5,1.8-0.9,3.7-1.3,5.5
		c-0.4,1.8-0.8,3.6-1.2,5.3c-0.4,1.7-0.7,3.3-1,4.8c0,0.3-0.1,0.5-0.3,0.6s-0.4,0.1-0.6,0.1s-0.6-0.1-0.9-0.2
		c-0.4-0.1-0.7-0.2-1.2-0.3s-0.8-0.3-1.2-0.4c-0.4-0.1-0.6-0.3-0.9-0.5c-0.2-0.2-0.4-0.4-0.5-0.7c-0.1-0.3-0.1-0.6,0-1
		c0.1-1,0.2-2.2,0.4-3.6c0.2-1.4,0.4-3,0.7-4.6s0.5-3.2,0.9-4.8c0.3-1.6,0.6-3.1,0.9-4.5c-0.6,0.1-1.2,0.2-1.7,0.3s-1,0.2-1.4,0.3
		c-0.5,0.1-0.9,0.1-1.3,0c-0.3-0.1-0.7-0.4-1.1-0.8c-0.4-0.4-0.8-1-1.2-1.6c-0.4-0.7-0.7-1.2-0.9-1.7c-0.2-0.5-0.3-0.8-0.2-0.9
		c0.1-0.2,0.4-0.3,0.8-0.4c1.2-0.2,2.6-0.5,4.1-0.7s3.1-0.4,4.7-0.6c1.6-0.2,3.2-0.3,4.7-0.4c1.5-0.1,2.9-0.2,4.1-0.2
		c0.6,0,1.1,0.1,1.4,0.2c0.3,0.1,0.5,0.3,0.7,0.6c0.4,0.5,0.8,1,1,1.5s0.5,1.1,0.6,1.6c0.1,0.5,0.1,0.8,0,1
		c-0.1,0.2-0.5,0.3-1.1,0.3C127.9,19.6,127,19.7,126,19.8z"/>
</g>
<path class="st5" d="M69.7,10.1C71,9.7,72.3,9.3,73.6,9c0.6-0.2,1.3-0.4,1.9-0.6c1.4-0.4,2.8-0.8,4.3-1.2c0.5-0.1,1-0.3,1.4-0.4
	c1.8-0.5,3.6-0.9,5.4-1.4c0.1,0,0.1,0,0.2,0c1.5-0.4,2.9-0.7,4.4-1.1l0,0c1.5-0.3,2.9-0.7,4.4-1c0.3-0.1,0.7-0.1,1-0.2
	c1.5-0.3,2.9-0.4,4.4-0.7c4.3-0.9,8.6-1.7,13-2.3H16C11.5,0,7.7,1.9,5.3,5C2.1,7.5,0,11.1,0,15.4V45c0,7.3,5.9,13.2,13.2,13.2
	c0.5-1.2,1-2.3,1.6-3.4c0.3-0.7,0.7-1.4,1-2.1c0.1-0.2,0.2-0.5,0.4-0.7c0.2-0.3,0.4-0.7,0.6-1s0.3-0.7,0.5-1v-0.2l0,0
	c0.4-0.6,0.8-1.2,1.2-1.9c0-0.1,0.1-0.1,0.1-0.1c0.4-0.6,0.7-1.1,1.1-1.7c0.1-0.1,0.2-0.2,0.3-0.4c0.3-0.5,0.7-1,1-1.5
	c0.1-0.1,0.2-0.3,0.3-0.4c0.4-0.6,0.9-1.2,1.4-1.9C32.8,28.2,46.2,18,62.4,12.5c1.8-0.6,3.7-1.2,5.5-1.8
	C68.5,10.5,69.1,10.3,69.7,10.1z"/>
</svg>
