<svg id="Layer_1" data-name="Layer 1" xmlns="http://www.w3.org/2000/svg" viewBox="0 0 300 300"><defs><style>.cls-1,.cls-3{fill:none;}.cls-2{fill:#010101;}.cls-3{stroke:#e6e7e8;stroke-miterlimit:10;stroke-width:0.81px;}.cls-4{fill:#f26522;}.cls-5{fill:#262262;}.cls-6{fill:#231f20;}.cls-7{fill:#39b54a;}</style></defs><title>completed</title><path class="cls-1" d="M82.5,38.65H105v22.5H82.5Z"/><path class="cls-2" d="M99.37,46.15h-.93V44.27a4.69,4.69,0,1,0-9.38,0v1.88h-.94A1.87,1.87,0,0,0,86.25,48V57.4a1.87,1.87,0,0,0,1.87,1.87H99.37a1.88,1.88,0,0,0,1.88-1.87V48A1.88,1.88,0,0,0,99.37,46.15Zm-5.62,8.43a1.88,1.88,0,1,1,1.87-1.87A1.88,1.88,0,0,1,93.75,54.58Zm2.91-8.43H90.84V44.27a2.91,2.91,0,1,1,5.82,0Z"/><path class="cls-1" d="M120,38.65h22.5v22.5H120Z"/><path class="cls-2" d="M136.87,46.15h-.93V44.27a4.69,4.69,0,0,0-9.38,0v1.88h-.94A1.87,1.87,0,0,0,123.75,48V57.4a1.87,1.87,0,0,0,1.87,1.87h11.25a1.88,1.88,0,0,0,1.88-1.87V48A1.88,1.88,0,0,0,136.87,46.15Zm-5.62,8.43a1.88,1.88,0,1,1,1.87-1.87A1.88,1.88,0,0,1,131.25,54.58Zm2.91-8.43h-5.82V44.27a2.91,2.91,0,1,1,5.82,0Z"/><path class="cls-1" d="M157.5,38.65H180v22.5H157.5Z"/><path class="cls-2" d="M174.37,46.15h-.93V44.27a4.69,4.69,0,0,0-9.38,0v1.88h-.94A1.87,1.87,0,0,0,161.25,48V57.4a1.87,1.87,0,0,0,1.87,1.87h11.25a1.88,1.88,0,0,0,1.88-1.87V48A1.88,1.88,0,0,0,174.37,46.15Zm-5.62,8.43a1.88,1.88,0,1,1,1.87-1.87A1.88,1.88,0,0,1,168.75,54.58Zm2.91-8.43h-5.82V44.27a2.91,2.91,0,1,1,5.82,0Z"/><path class="cls-1" d="M195,38.65h22.5v22.5H195Z"/><path class="cls-2" d="M211.87,46.15h-.93V44.27a4.69,4.69,0,0,0-9.38,0v1.88h-.94A1.87,1.87,0,0,0,198.75,48V57.4a1.87,1.87,0,0,0,1.87,1.87h11.25a1.88,1.88,0,0,0,1.88-1.87V48A1.88,1.88,0,0,0,211.87,46.15Zm-5.62,8.43a1.88,1.88,0,1,1,1.87-1.87A1.88,1.88,0,0,1,206.25,54.58Zm2.91-8.43h-5.82V44.27a2.91,2.91,0,1,1,5.82,0Z"/><rect class="cls-3" x="75" y="31.15" width="37.5" height="37.5"/><rect class="cls-3" x="112.5" y="31.15" width="37.5" height="37.5"/><rect class="cls-3" x="150" y="31.15" width="37.5" height="37.5"/><rect class="cls-3" x="187.5" y="31.15" width="37.5" height="37.5"/><path class="cls-1" d="M82.5,238.75H105v22.5H82.5Z"/><path class="cls-2" d="M99.37,246.25h-.93v-1.87a4.69,4.69,0,0,0-9.38,0v1.87h-.94a1.88,1.88,0,0,0-1.87,1.88v9.37a1.87,1.87,0,0,0,1.87,1.87H99.37a1.88,1.88,0,0,0,1.88-1.87v-9.37A1.88,1.88,0,0,0,99.37,246.25Zm-5.62,8.44a1.88,1.88,0,1,1,1.87-1.88A1.89,1.89,0,0,1,93.75,254.69Zm2.91-8.44H90.84v-1.87a2.91,2.91,0,0,1,5.82,0Z"/><path class="cls-1" d="M120,238.75h22.5v22.5H120Z"/><path class="cls-2" d="M136.87,246.25h-.93v-1.87a4.69,4.69,0,0,0-9.38,0v1.87h-.94a1.88,1.88,0,0,0-1.87,1.88v9.37a1.87,1.87,0,0,0,1.87,1.87h11.25a1.88,1.88,0,0,0,1.88-1.87v-9.37A1.88,1.88,0,0,0,136.87,246.25Zm-5.62,8.44a1.88,1.88,0,1,1,1.87-1.88A1.89,1.89,0,0,1,131.25,254.69Zm2.91-8.44h-5.82v-1.87a2.91,2.91,0,0,1,5.82,0Z"/><path class="cls-1" d="M157.5,238.75H180v22.5H157.5Z"/><path class="cls-2" d="M174.37,246.25h-.93v-1.87a4.69,4.69,0,0,0-9.38,0v1.87h-.94a1.88,1.88,0,0,0-1.87,1.88v9.37a1.87,1.87,0,0,0,1.87,1.87h11.25a1.88,1.88,0,0,0,1.88-1.87v-9.37A1.88,1.88,0,0,0,174.37,246.25Zm-5.62,8.44a1.88,1.88,0,1,1,1.87-1.88A1.89,1.89,0,0,1,168.75,254.69Zm2.91-8.44h-5.82v-1.87a2.91,2.91,0,0,1,5.82,0Z"/><path class="cls-1" d="M195,238.75h22.5v22.5H195Z"/><path class="cls-2" d="M211.87,246.25h-.93v-1.87a4.69,4.69,0,0,0-9.38,0v1.87h-.94a1.88,1.88,0,0,0-1.87,1.88v9.37a1.87,1.87,0,0,0,1.87,1.87h11.25a1.88,1.88,0,0,0,1.88-1.87v-9.37A1.88,1.88,0,0,0,211.87,246.25Zm-5.62,8.44a1.88,1.88,0,1,1,1.87-1.88A1.89,1.89,0,0,1,206.25,254.69Zm2.91-8.44h-5.82v-1.87a2.91,2.91,0,0,1,5.82,0Z"/><rect class="cls-3" x="75" y="231.25" width="37.5" height="37.5"/><rect class="cls-3" x="112.5" y="231.25" width="37.5" height="37.5"/><rect class="cls-3" x="150" y="231.25" width="37.5" height="37.5"/><rect class="cls-3" x="187.5" y="231.25" width="37.5" height="37.5"/><path class="cls-1" d="M238.75,82.5h22.5V105h-22.5Z"/><path class="cls-2" d="M255.63,90h-.94V88.13a4.69,4.69,0,0,0-9.38,0V90h-.93a1.88,1.88,0,0,0-1.88,1.88v9.37a1.88,1.88,0,0,0,1.88,1.88h11.25a1.88,1.88,0,0,0,1.87-1.88V91.88A1.88,1.88,0,0,0,255.63,90ZM250,98.44a1.88,1.88,0,1,1,1.88-1.88A1.88,1.88,0,0,1,250,98.44ZM252.91,90h-5.82V88.13a2.91,2.91,0,0,1,5.82,0Z"/><path class="cls-1" d="M238.75,120h22.5v22.5h-22.5Z"/><path class="cls-2" d="M255.63,127.5h-.94v-1.87a4.69,4.69,0,0,0-9.38,0v1.87h-.93a1.88,1.88,0,0,0-1.88,1.87v9.38a1.88,1.88,0,0,0,1.88,1.87h11.25a1.87,1.87,0,0,0,1.87-1.87v-9.38A1.87,1.87,0,0,0,255.63,127.5ZM250,135.94a1.88,1.88,0,1,1,1.88-1.88A1.88,1.88,0,0,1,250,135.94Zm2.91-8.44h-5.82v-1.87a2.91,2.91,0,0,1,5.82,0Z"/><path class="cls-1" d="M238.75,157.5h22.5V180h-22.5Z"/><path class="cls-2" d="M255.63,165h-.94v-1.88a4.69,4.69,0,0,0-9.38,0V165h-.93a1.88,1.88,0,0,0-1.88,1.87v9.38a1.88,1.88,0,0,0,1.88,1.87h11.25a1.87,1.87,0,0,0,1.87-1.87v-9.38A1.87,1.87,0,0,0,255.63,165ZM250,173.44a1.88,1.88,0,1,1,1.88-1.88A1.88,1.88,0,0,1,250,173.44Zm2.91-8.44h-5.82v-1.88a2.91,2.91,0,0,1,5.82,0Z"/><path class="cls-1" d="M238.75,195h22.5v22.5h-22.5Z"/><path class="cls-2" d="M255.63,202.5h-.94v-1.87a4.69,4.69,0,0,0-9.38,0v1.87h-.93a1.88,1.88,0,0,0-1.88,1.87v9.38a1.88,1.88,0,0,0,1.88,1.87h11.25a1.87,1.87,0,0,0,1.87-1.87v-9.38A1.87,1.87,0,0,0,255.63,202.5ZM250,210.94a1.88,1.88,0,1,1,1.88-1.88A1.88,1.88,0,0,1,250,210.94Zm2.91-8.44h-5.82v-1.87a2.91,2.91,0,0,1,5.82,0Z"/><rect class="cls-3" x="231.25" y="75" width="37.5" height="37.5" transform="translate(343.75 -156.25) rotate(90)"/><rect class="cls-3" x="231.25" y="112.5" width="37.5" height="37.5" transform="translate(381.25 -118.75) rotate(90)"/><rect class="cls-3" x="231.25" y="150" width="37.5" height="37.5" transform="translate(418.75 -81.25) rotate(90)"/><rect class="cls-3" x="231.25" y="187.5" width="37.5" height="37.5" transform="translate(456.25 -43.75) rotate(90)"/><rect class="cls-4" x="225" y="24.9" width="50" height="50" rx="7.2"/><rect class="cls-5" x="225" y="225" width="50" height="50" rx="7.2"/><rect class="cls-6" x="25" y="225" width="50" height="50" rx="7.2"/><rect class="cls-7" x="25" y="24.9" width="50" height="50" rx="7.2"/></svg>